<svg width="24" height="24" viewBox="0 0 24 24" fill="none" xmlns="http://www.w3.org/2000/svg">
<path d="M12 0.625C5.72771 0.625 0.625 5.72771 0.625 12C0.625 18.2723 5.72771 23.375 12 23.375C18.2723 23.375 23.375 18.2723 23.375 12C23.375 5.72771 18.2723 0.625 12 0.625ZM19.4113 8.76221L9.68708 17.0164C9.47504 17.1952 9.21342 17.2932 8.94771 17.2946H8.93079L8.81996 17.2888C8.50233 17.2561 8.21912 17.1039 8.02254 16.8595L4.42979 12.3418C4.23642 12.0989 4.14892 11.7947 4.18362 11.4852C4.21921 11.174 4.3735 10.896 4.61879 10.7015C4.81217 10.5463 5.06737 10.4591 5.33337 10.4591C5.69854 10.4591 6.04475 10.6219 6.25942 10.894L9.09383 14.4585L17.9007 6.98333C18.1005 6.81533 18.3633 6.72433 18.6439 6.72433C19.0052 6.72433 19.3337 6.86696 19.5448 7.11575C19.9613 7.611 19.9001 8.34804 19.4113 8.76221Z" fill="#127616"/>
</svg>
