<svg width="26" height="26" viewBox="0 0 26 26" fill="none" xmlns="http://www.w3.org/2000/svg">
<path d="M13 0C5.82947 0 0 5.82947 0 13C0 20.1705 5.82947 26 13 26C20.1705 26 26 20.1705 26 13C26 5.82947 20.1705 0 13 0ZM18.8021 16.6947C19.0211 16.9137 19.0211 17.2421 18.8021 17.4337L17.4337 18.8021C17.2147 19.0211 16.8863 19.0211 16.6947 18.8021L13 15.1074L9.30526 18.8021C9.08632 19.0211 8.75789 19.0211 8.56632 18.8021L7.19789 17.4337C6.97895 17.2147 6.97895 16.8863 7.19789 16.6947L10.8926 13L7.19789 9.30526C6.97895 9.08632 6.97895 8.75789 7.19789 8.56632L8.56632 7.19789C8.78526 6.97895 9.11368 6.97895 9.30526 7.19789L13 10.8926L16.6947 7.19789C16.9137 6.97895 17.2421 6.97895 17.4337 7.19789L18.8021 8.56632C19.0211 8.78526 19.0211 9.11368 18.8021 9.30526L15.1074 13L18.8021 16.6947Z" fill="#CC3E16"/>
</svg>
