<svg width="1022" height="110" viewBox="0 0 1022 110" fill="none" xmlns="http://www.w3.org/2000/svg">
<rect y="52" width="200" height="12" fill="#155777" fill-opacity="0.47"/>
<rect x="822" y="50" width="200" height="12" fill="#155777" fill-opacity="0.47"/>
<path d="M361 0H367.757C368.527 0 369.368 0.0325015 370.282 0.0975043C371.212 0.162507 372.134 0.325015 373.048 0.585026C373.978 0.828787 374.867 1.20255 375.717 1.70633C376.583 2.2101 377.344 2.90075 378.001 3.77829C378.675 4.65583 379.212 5.76088 379.613 7.09344C380.013 8.40975 380.214 10.0104 380.214 11.8955V12.9437C380.214 16.1126 379.765 18.6965 378.867 20.6953C377.969 22.6779 376.647 24.108 374.899 24.9855L381.488 41.6344H374.899L369.441 26.058H367.108V41.6344H361V0ZM368.046 21.4997C369.136 21.4997 370.058 21.3778 370.811 21.1341C371.565 20.8903 372.174 20.484 372.639 19.9153C373.104 19.3302 373.44 18.5665 373.649 17.6239C373.857 16.6651 373.961 15.4869 373.961 14.0894V10.7986C373.961 9.72606 373.865 8.79977 373.673 8.01973C373.481 7.2397 373.152 6.59779 372.687 6.09402C372.238 5.59025 371.637 5.21648 370.883 4.97272C370.13 4.72896 369.184 4.60708 368.046 4.60708H367.108V21.4997H368.046Z" fill="black"/>
<path d="M393.801 42C392.374 42 391.107 41.7319 390.001 41.1956C388.911 40.6593 387.989 39.8224 387.236 38.6848C386.482 37.5473 385.913 36.0929 385.528 34.3215C385.143 32.534 384.951 30.3889 384.951 27.8862V21.5485C384.951 19.4196 385.103 17.5995 385.408 16.0882C385.729 14.5606 386.137 13.285 386.634 12.2612C387.147 11.2211 387.733 10.4005 388.39 9.79919C389.063 9.19791 389.753 8.74289 390.458 8.43413C391.163 8.10911 391.861 7.90598 392.55 7.82472C393.255 7.72722 393.905 7.67847 394.498 7.67847C395.588 7.67847 396.638 7.8491 397.648 8.19037C398.658 8.51538 399.548 9.08416 400.317 9.89669C401.087 10.693 401.696 11.7655 402.145 13.1143C402.61 14.4631 402.842 16.1451 402.842 18.1602C402.842 18.8427 402.818 19.5334 402.77 20.2322C402.738 20.9309 402.69 21.6216 402.626 22.3041C402.562 22.9704 402.474 23.6204 402.361 24.2542C402.265 24.888 402.161 25.473 402.049 26.0093H391.059V29.4219C391.059 30.8845 391.115 32.1196 391.227 33.1271C391.34 34.1184 391.524 34.9228 391.781 35.5403C392.053 36.1416 392.414 36.5804 392.863 36.8566C393.328 37.1167 393.905 37.2467 394.594 37.2467C394.963 37.2467 395.324 37.1735 395.676 37.0273C396.029 36.8648 396.334 36.6048 396.59 36.2472C396.863 35.8897 397.079 35.4185 397.239 34.8334C397.4 34.2322 397.48 33.4927 397.48 32.6152V31.567H402.554V32.859C402.554 36.0441 401.8 38.368 400.293 39.8305C398.802 41.2768 396.638 42 393.801 42ZM397.167 21.8654C397.183 21.6866 397.199 21.451 397.215 21.1584C397.231 20.8497 397.239 20.5328 397.239 20.2078C397.255 19.8828 397.263 19.5659 397.263 19.2571C397.263 18.9321 397.263 18.6558 397.263 18.4283C397.263 16.2182 397.007 14.6257 396.494 13.6506C395.981 12.6756 395.219 12.188 394.209 12.188C393.68 12.188 393.215 12.318 392.815 12.5781C392.414 12.8218 392.085 13.2443 391.829 13.8456C391.572 14.4306 391.38 15.2107 391.252 16.1857C391.123 17.1608 391.059 18.3714 391.059 19.8178V21.8654H397.167Z" fill="black"/>
<path d="M412.557 42C411.531 42 410.618 41.7969 409.816 41.3906C409.03 40.9681 408.365 40.3993 407.82 39.6843C407.275 38.9692 406.858 38.1242 406.57 37.1492C406.297 36.1579 406.161 35.0853 406.161 33.9315C406.161 32.5502 406.329 31.3233 406.666 30.2507C407.002 29.1782 407.491 28.2113 408.133 27.35C408.79 26.4887 409.6 25.7086 410.562 25.0099C411.523 24.2948 412.638 23.6204 413.904 22.9867C414.513 22.6779 415.195 22.3691 415.948 22.0604C416.718 21.7353 417.399 21.4591 417.992 21.2316V16.7951C417.992 16.1451 417.968 15.5438 417.92 14.9913C417.872 14.4225 417.752 13.935 417.559 13.5287C417.383 13.1062 417.11 12.7812 416.742 12.5537C416.373 12.3099 415.868 12.188 415.227 12.188C414.794 12.188 414.369 12.2693 413.952 12.4318C413.551 12.5943 413.191 12.8706 412.87 13.2606C412.565 13.6506 412.317 14.1706 412.125 14.8207C411.948 15.4707 411.86 16.2751 411.86 17.2339V18.6965H407.219C407.075 18.0627 406.962 17.4858 406.882 16.9658C406.818 16.4295 406.786 15.9013 406.786 15.3813C406.786 14.13 406.994 13.025 407.411 12.0662C407.844 11.1074 408.437 10.303 409.191 9.65293C409.96 9.0029 410.874 8.51538 411.932 8.19037C412.99 7.8491 414.153 7.67847 415.419 7.67847C417.07 7.67847 418.441 7.86535 419.531 8.23912C420.621 8.59663 421.487 9.14103 422.128 9.87232C422.786 10.6036 423.242 11.5218 423.499 12.6268C423.771 13.7319 423.908 15.0238 423.908 16.5026V41.6344H419.387L418.954 38.758C418.297 39.7168 417.415 40.4968 416.309 41.0981C415.219 41.6994 413.968 42 412.557 42ZM415.251 37.2467C415.764 37.2467 416.261 37.1167 416.742 36.8566C417.239 36.5804 417.655 36.2472 417.992 35.8572V25.3511C417.671 25.4811 417.311 25.6355 416.91 25.8143C416.509 25.993 416.076 26.2287 415.611 26.5212C415.179 26.7974 414.754 27.1306 414.337 27.5206C413.92 27.9106 413.543 28.3738 413.207 28.91C412.886 29.4463 412.622 30.0557 412.413 30.7382C412.221 31.4045 412.125 32.1521 412.125 32.9808C412.125 34.2647 412.373 35.2966 412.87 36.0766C413.367 36.8566 414.161 37.2467 415.251 37.2467Z" fill="black"/>
<path d="M428.91 34.614C428.91 33.8828 428.974 33.1759 429.102 32.4933C429.246 31.8108 429.383 31.2664 429.511 30.8601H433.791C433.791 32.0789 433.847 33.1027 433.96 33.9315C434.088 34.744 434.288 35.3941 434.561 35.8816C434.833 36.3691 435.194 36.7185 435.643 36.9298C436.108 37.141 436.669 37.2467 437.326 37.2467C438.24 37.2467 438.905 36.9866 439.322 36.4666C439.739 35.9466 439.947 35.3453 439.947 34.6628C439.947 34.3053 439.899 33.964 439.803 33.639C439.707 33.314 439.571 32.989 439.394 32.664C439.218 32.3227 439.001 31.9814 438.745 31.6402C438.488 31.2989 438.2 30.9251 437.879 30.5189L433.43 25.2049C432.853 24.4736 432.292 23.7342 431.747 22.9867C431.218 22.2229 430.745 21.4428 430.328 20.6465C429.928 19.834 429.599 18.989 429.342 18.1114C429.102 17.2339 428.982 16.3076 428.982 15.3326C428.982 14.0325 429.198 12.9031 429.631 11.9443C430.08 10.9855 430.673 10.1892 431.411 9.55543C432.164 8.92165 433.03 8.45038 434.008 8.14161C434.986 7.83285 436.02 7.67847 437.11 7.67847C438.312 7.67847 439.394 7.82472 440.356 8.11724C441.318 8.40975 442.144 8.84852 442.833 9.43355C443.522 10.0186 444.051 10.7499 444.42 11.6274C444.789 12.4887 444.973 13.4962 444.973 14.65C444.973 15.4301 444.901 16.1857 444.757 16.917C444.629 17.6483 444.5 18.2739 444.372 18.794H440.164C440.148 17.6889 440.1 16.722 440.019 15.8932C439.939 15.0644 439.787 14.3819 439.563 13.8456C439.354 13.2931 439.058 12.8787 438.673 12.6024C438.304 12.3262 437.815 12.188 437.206 12.188C436.677 12.188 436.236 12.2774 435.883 12.4562C435.531 12.6187 435.242 12.8381 435.018 13.1143C434.809 13.3906 434.657 13.6994 434.561 14.0406C434.481 14.3819 434.44 14.7313 434.44 15.0888C434.44 15.8688 434.625 16.592 434.994 17.2583C435.362 17.9245 435.851 18.6477 436.46 19.4277L441.318 25.2049C441.671 25.6436 442.08 26.1799 442.544 26.8137C443.009 27.4312 443.45 28.1219 443.867 28.8857C444.284 29.6332 444.637 30.4539 444.925 31.3476C445.214 32.2414 445.358 33.1759 445.358 34.1509C445.358 35.3372 445.174 36.4179 444.805 37.3929C444.436 38.3517 443.891 39.1724 443.17 39.8549C442.448 40.5374 441.558 41.0656 440.5 41.4394C439.458 41.8131 438.264 42 436.917 42C435.811 42 434.769 41.8781 433.791 41.6344C432.813 41.3743 431.964 40.96 431.242 40.3912C430.521 39.8062 429.952 39.0424 429.535 38.0998C429.118 37.1573 428.91 35.9954 428.91 34.614Z" fill="black"/>
<path d="M458.512 42C457.806 42 457.085 41.9431 456.348 41.8294C455.626 41.7156 454.921 41.48 454.231 41.1225C453.558 40.7649 452.917 40.253 452.308 39.5868C451.714 38.9205 451.193 38.0429 450.745 36.9541C450.296 35.8653 449.943 34.5247 449.686 32.9321C449.43 31.3395 449.302 29.4382 449.302 27.2281V21.9629C449.302 19.7853 449.43 17.9245 449.686 16.3807C449.959 14.8207 450.32 13.5125 450.769 12.4562C451.234 11.3999 451.771 10.563 452.38 9.94544C452.989 9.31167 453.63 8.83227 454.304 8.50725C454.993 8.16599 455.698 7.9466 456.42 7.8491C457.141 7.73534 457.847 7.67847 458.536 7.67847C459.193 7.67847 459.875 7.72722 460.58 7.82472C461.285 7.92223 461.975 8.13349 462.648 8.4585C463.321 8.76727 463.955 9.23854 464.548 9.87232C465.157 10.4898 465.686 11.3268 466.135 12.3831C466.6 13.4393 466.96 14.7557 467.217 16.332C467.489 17.892 467.626 19.769 467.626 21.9629V27.2281C467.626 29.4057 467.489 31.2826 467.217 32.859C466.944 34.4353 466.576 35.7678 466.111 36.8566C465.646 37.9454 465.109 38.8311 464.5 39.5136C463.89 40.1799 463.249 40.6999 462.576 41.0737C461.903 41.4475 461.213 41.6912 460.508 41.805C459.818 41.935 459.153 42 458.512 42ZM458.56 37.2467C459.105 37.2467 459.562 37.1085 459.931 36.8323C460.315 36.5398 460.62 36.0685 460.844 35.4185C461.085 34.7684 461.253 33.9153 461.349 32.859C461.462 31.7864 461.518 30.462 461.518 28.8857V20.6222C461.518 19.0458 461.462 17.7214 461.349 16.6489C461.253 15.5763 461.085 14.715 460.844 14.065C460.62 13.3987 460.315 12.9193 459.931 12.6268C459.562 12.3343 459.105 12.188 458.56 12.188C457.983 12.188 457.494 12.3343 457.093 12.6268C456.708 12.9193 456.388 13.3987 456.131 14.065C455.875 14.715 455.69 15.5763 455.578 16.6489C455.466 17.7214 455.41 19.0458 455.41 20.6222V28.8857C455.41 30.462 455.466 31.7864 455.578 32.859C455.69 33.9153 455.875 34.7684 456.131 35.4185C456.388 36.0685 456.708 36.5398 457.093 36.8323C457.494 37.1085 457.983 37.2467 458.56 37.2467Z" fill="black"/>
<path d="M473.012 8.06849H477.702L478.255 11.6518V11.6761C478.736 10.9124 479.249 10.2786 479.794 9.77481C480.355 9.25479 480.932 8.84039 481.525 8.53163C482.118 8.22287 482.719 8.00348 483.329 7.87348C483.954 7.74347 484.571 7.67847 485.18 7.67847C487.12 7.67847 488.611 8.36912 489.653 9.75043C490.711 11.1155 491.24 13.1712 491.24 15.9176V41.6344H485.156V16.137C485.156 14.6582 484.932 13.6344 484.483 13.0656C484.034 12.4806 483.377 12.188 482.511 12.188C481.902 12.188 481.293 12.3912 480.683 12.7974C480.09 13.2037 479.561 13.7644 479.096 14.4794V41.6344H473.012V8.06849Z" fill="black"/>
<path d="M496.242 34.614C496.242 33.8828 496.306 33.1759 496.434 32.4933C496.579 31.8108 496.715 31.2664 496.843 30.8601H501.124C501.124 32.0789 501.18 33.1027 501.292 33.9315C501.42 34.744 501.621 35.3941 501.893 35.8816C502.166 36.3691 502.526 36.7185 502.975 36.9298C503.44 37.141 504.001 37.2467 504.659 37.2467C505.572 37.2467 506.238 36.9866 506.655 36.4666C507.071 35.9466 507.28 35.3453 507.28 34.6628C507.28 34.3053 507.232 33.964 507.135 33.639C507.039 33.314 506.903 32.989 506.727 32.664C506.55 32.3227 506.334 31.9814 506.077 31.6402C505.821 31.2989 505.532 30.9251 505.212 30.5189L500.763 25.2049C500.186 24.4736 499.625 23.7342 499.08 22.9867C498.551 22.2229 498.078 21.4428 497.661 20.6465C497.26 19.834 496.931 18.989 496.675 18.1114C496.434 17.2339 496.314 16.3076 496.314 15.3326C496.314 14.0325 496.531 12.9031 496.963 11.9443C497.412 10.9855 498.006 10.1892 498.743 9.55543C499.496 8.92165 500.362 8.45038 501.34 8.14161C502.318 7.83285 503.352 7.67847 504.442 7.67847C505.645 7.67847 506.727 7.82472 507.689 8.11724C508.65 8.40975 509.476 8.84852 510.165 9.43355C510.855 10.0186 511.384 10.7499 511.753 11.6274C512.121 12.4887 512.306 13.4962 512.306 14.65C512.306 15.4301 512.234 16.1857 512.089 16.917C511.961 17.6483 511.833 18.2739 511.704 18.794H507.496C507.48 17.6889 507.432 16.722 507.352 15.8932C507.272 15.0644 507.119 14.3819 506.895 13.8456C506.687 13.2931 506.39 12.8787 506.005 12.6024C505.637 12.3262 505.148 12.188 504.538 12.188C504.009 12.188 503.568 12.2774 503.216 12.4562C502.863 12.6187 502.575 12.8381 502.35 13.1143C502.142 13.3906 501.989 13.6994 501.893 14.0406C501.813 14.3819 501.773 14.7313 501.773 15.0888C501.773 15.8688 501.957 16.592 502.326 17.2583C502.695 17.9245 503.184 18.6477 503.793 19.4277L508.65 25.2049C509.003 25.6436 509.412 26.1799 509.877 26.8137C510.342 27.4312 510.783 28.1219 511.199 28.8857C511.616 29.6332 511.969 30.4539 512.258 31.3476C512.546 32.2414 512.69 33.1759 512.69 34.1509C512.69 35.3372 512.506 36.4179 512.137 37.3929C511.769 38.3517 511.224 39.1724 510.502 39.8549C509.781 40.5374 508.891 41.0656 507.833 41.4394C506.791 41.8131 505.596 42 504.25 42C503.144 42 502.102 41.8781 501.124 41.6344C500.146 41.3743 499.296 40.96 498.575 40.3912C497.853 39.8062 497.284 39.0424 496.867 38.0998C496.45 37.1573 496.242 35.9954 496.242 34.614Z" fill="black"/>
<path d="M532.217 4.97272H525.604V0H545.034V4.97272H538.445V41.6344H532.217V4.97272Z" fill="black"/>
<path d="M557.202 42C556.497 42 555.775 41.9431 555.038 41.8294C554.316 41.7156 553.611 41.48 552.922 41.1225C552.248 40.7649 551.607 40.253 550.998 39.5868C550.405 38.9205 549.884 38.0429 549.435 36.9541C548.986 35.8653 548.633 34.5247 548.377 32.9321C548.12 31.3395 547.992 29.4382 547.992 27.2281V21.9629C547.992 19.7853 548.12 17.9245 548.377 16.3807C548.649 14.8207 549.01 13.5125 549.459 12.4562C549.924 11.3999 550.461 10.563 551.07 9.94544C551.679 9.31167 552.32 8.83227 552.994 8.50725C553.683 8.16599 554.388 7.9466 555.11 7.8491C555.831 7.73534 556.537 7.67847 557.226 7.67847C557.883 7.67847 558.565 7.72722 559.27 7.82472C559.975 7.92223 560.665 8.13349 561.338 8.4585C562.011 8.76727 562.645 9.23854 563.238 9.87232C563.847 10.4898 564.376 11.3268 564.825 12.3831C565.29 13.4393 565.651 14.7557 565.907 16.332C566.18 17.892 566.316 19.769 566.316 21.9629V27.2281C566.316 29.4057 566.18 31.2826 565.907 32.859C565.635 34.4353 565.266 35.7678 564.801 36.8566C564.336 37.9454 563.799 38.8311 563.19 39.5136C562.581 40.1799 561.939 40.6999 561.266 41.0737C560.593 41.4475 559.903 41.6912 559.198 41.805C558.509 41.935 557.843 42 557.202 42ZM557.25 37.2467C557.795 37.2467 558.252 37.1085 558.621 36.8323C559.006 36.5398 559.31 36.0685 559.535 35.4185C559.775 34.7684 559.943 33.9153 560.04 32.859C560.152 31.7864 560.208 30.462 560.208 28.8857V20.6222C560.208 19.0458 560.152 17.7214 560.04 16.6489C559.943 15.5763 559.775 14.715 559.535 14.065C559.31 13.3987 559.006 12.9193 558.621 12.6268C558.252 12.3343 557.795 12.188 557.25 12.188C556.673 12.188 556.184 12.3343 555.783 12.6268C555.398 12.9193 555.078 13.3987 554.821 14.065C554.565 14.715 554.38 15.5763 554.268 16.6489C554.156 17.7214 554.1 19.0458 554.1 20.6222V28.8857C554.1 30.462 554.156 31.7864 554.268 32.859C554.38 33.9153 554.565 34.7684 554.821 35.4185C555.078 36.0685 555.398 36.5398 555.783 36.8323C556.184 37.1085 556.673 37.2467 557.25 37.2467Z" fill="black"/>
<path d="M582.62 0H588.92C589.85 0 590.812 0.0325015 591.806 0.0975043C592.8 0.162507 593.77 0.300638 594.716 0.511898C595.662 0.723157 596.559 1.04005 597.409 1.46257C598.259 1.86883 598.996 2.42136 599.621 3.12014C600.263 3.81892 600.768 4.68833 601.136 5.72838C601.521 6.75218 601.714 7.98723 601.714 9.43355V11.4568C601.714 12.5618 601.553 13.5775 601.233 14.5038C600.928 15.4301 600.519 16.2507 600.006 16.9658C599.493 17.6645 598.908 18.2496 598.251 18.7208C597.593 19.1759 596.92 19.4846 596.231 19.6471V19.8421C598.267 20.2159 599.798 21.1991 600.824 22.7916C601.866 24.368 602.387 26.3912 602.387 28.8613V30.982C602.387 32.4933 602.219 33.8096 601.882 34.9309C601.561 36.036 601.104 36.9866 600.511 37.7829C599.918 38.563 599.213 39.2049 598.395 39.7086C597.577 40.2124 596.68 40.6106 595.702 40.9031C594.724 41.1793 593.682 41.3743 592.576 41.4881C591.469 41.5856 590.331 41.6344 589.161 41.6344H582.62V0ZM589.93 17.8189C590.764 17.8189 591.525 17.7214 592.215 17.5264C592.904 17.3151 593.489 16.9983 593.97 16.5757C594.467 16.137 594.844 15.5763 595.101 14.8938C595.373 14.195 595.509 13.3581 595.509 12.3831V10.6767C595.509 9.70168 595.413 8.84039 595.221 8.09286C595.028 7.34533 594.708 6.71155 594.259 6.19153C593.826 5.6715 593.249 5.28149 592.527 5.02147C591.822 4.74521 590.956 4.60708 589.93 4.60708H588.728V17.8189H589.93ZM590.508 37.2467C591.341 37.2467 592.095 37.141 592.768 36.9298C593.457 36.7023 594.042 36.361 594.523 35.906C595.02 35.4347 595.397 34.8416 595.654 34.1265C595.926 33.4115 596.062 32.5665 596.062 31.5914V28.3494C596.062 27.3743 595.966 26.5131 595.774 25.7655C595.581 25.0017 595.261 24.368 594.812 23.8642C594.379 23.3442 593.81 22.9541 593.105 22.6941C592.399 22.4179 591.534 22.2797 590.508 22.2797H588.728V37.2467H590.508Z" fill="black"/>
<path d="M615.421 42C613.994 42 612.727 41.7319 611.621 41.1956C610.531 40.6593 609.609 39.8224 608.856 38.6848C608.102 37.5473 607.533 36.0929 607.148 34.3215C606.763 32.534 606.571 30.3889 606.571 27.8862V21.5485C606.571 19.4196 606.723 17.5995 607.028 16.0882C607.349 14.5606 607.757 13.285 608.254 12.2612C608.767 11.2211 609.353 10.4005 610.01 9.79919C610.683 9.19791 611.373 8.74289 612.078 8.43413C612.783 8.10911 613.481 7.90598 614.17 7.82472C614.875 7.72722 615.525 7.67847 616.118 7.67847C617.208 7.67847 618.258 7.8491 619.268 8.19037C620.278 8.51538 621.168 9.08416 621.937 9.89669C622.707 10.693 623.316 11.7655 623.765 13.1143C624.23 14.4631 624.462 16.1451 624.462 18.1602C624.462 18.8427 624.438 19.5334 624.39 20.2322C624.358 20.9309 624.31 21.6216 624.246 22.3041C624.182 22.9704 624.094 23.6204 623.981 24.2542C623.885 24.888 623.781 25.473 623.669 26.0093H612.679V29.4219C612.679 30.8845 612.735 32.1196 612.847 33.1271C612.96 34.1184 613.144 34.9228 613.401 35.5403C613.673 36.1416 614.034 36.5804 614.483 36.8566C614.948 37.1167 615.525 37.2467 616.214 37.2467C616.583 37.2467 616.944 37.1735 617.296 37.0273C617.649 36.8648 617.953 36.6048 618.21 36.2472C618.483 35.8897 618.699 35.4185 618.859 34.8334C619.02 34.2322 619.1 33.4927 619.1 32.6152V31.567H624.174V32.859C624.174 36.0441 623.42 38.368 621.913 39.8305C620.422 41.2768 618.258 42 615.421 42ZM618.787 21.8654C618.803 21.6866 618.819 21.451 618.835 21.1584C618.851 20.8497 618.859 20.5328 618.859 20.2078C618.875 19.8828 618.883 19.5659 618.883 19.2571C618.883 18.9321 618.883 18.6558 618.883 18.4283C618.883 16.2182 618.627 14.6257 618.114 13.6506C617.601 12.6756 616.839 12.188 615.829 12.188C615.3 12.188 614.835 12.318 614.435 12.5781C614.034 12.8218 613.705 13.2443 613.449 13.8456C613.192 14.4306 613 15.2107 612.871 16.1857C612.743 17.1608 612.679 18.3714 612.679 19.8178V21.8654H618.787Z" fill="black"/>
<path d="M637.328 42C634.538 42 632.406 40.8381 630.931 38.5142C629.472 36.1904 628.743 32.6477 628.743 27.8862V21.5485C628.743 19.4196 628.895 17.5995 629.2 16.0882C629.504 14.5606 629.905 13.285 630.402 12.2612C630.915 11.2211 631.492 10.4005 632.133 9.79919C632.791 9.19791 633.464 8.74289 634.153 8.43413C634.843 8.10911 635.524 7.90598 636.197 7.82472C636.871 7.72722 637.488 7.67847 638.049 7.67847C639.171 7.67847 640.197 7.83285 641.127 8.14161C642.057 8.43413 642.858 8.88915 643.532 9.50667C644.205 10.108 644.726 10.8717 645.095 11.798C645.464 12.7243 645.648 13.8131 645.648 15.0644C645.648 15.8445 645.608 16.5189 645.528 17.0876C645.464 17.6402 645.367 18.1764 645.239 18.6965H640.382V17.5752C640.382 15.8851 640.181 14.5688 639.78 13.6262C639.396 12.6674 638.754 12.188 637.857 12.188C637.36 12.188 636.927 12.3099 636.558 12.5537C636.189 12.7812 635.877 13.1793 635.62 13.7481C635.38 14.3169 635.195 15.0807 635.067 16.0395C634.955 16.9983 634.899 18.2008 634.899 19.6471V29.1782C634.899 30.6407 634.947 31.8839 635.043 32.9077C635.139 33.9315 635.308 34.7684 635.548 35.4185C635.789 36.0522 636.109 36.5154 636.51 36.8079C636.911 37.1004 637.408 37.2467 638.001 37.2467C638.306 37.2467 638.602 37.1735 638.891 37.0273C639.179 36.8648 639.428 36.6048 639.636 36.2472C639.861 35.8897 640.037 35.4185 640.165 34.8334C640.309 34.2322 640.382 33.4927 640.382 32.6152V31.567H645.624V32.859C645.624 36.0441 644.927 38.368 643.532 39.8305C642.153 41.2768 640.085 42 637.328 42Z" fill="black"/>
<path d="M658.922 42C658.217 42 657.495 41.9431 656.758 41.8294C656.036 41.7156 655.331 41.48 654.642 41.1225C653.968 40.7649 653.327 40.253 652.718 39.5868C652.125 38.9205 651.604 38.0429 651.155 36.9541C650.706 35.8653 650.353 34.5247 650.097 32.9321C649.84 31.3395 649.712 29.4382 649.712 27.2281V21.9629C649.712 19.7853 649.84 17.9245 650.097 16.3807C650.369 14.8207 650.73 13.5125 651.179 12.4562C651.644 11.3999 652.181 10.563 652.79 9.94544C653.399 9.31167 654.04 8.83227 654.714 8.50725C655.403 8.16599 656.109 7.9466 656.83 7.8491C657.551 7.73534 658.257 7.67847 658.946 7.67847C659.603 7.67847 660.285 7.72722 660.99 7.82472C661.696 7.92223 662.385 8.13349 663.058 8.4585C663.732 8.76727 664.365 9.23854 664.958 9.87232C665.567 10.4898 666.096 11.3268 666.545 12.3831C667.01 13.4393 667.371 14.7557 667.627 16.332C667.9 17.892 668.036 19.769 668.036 21.9629V27.2281C668.036 29.4057 667.9 31.2826 667.627 32.859C667.355 34.4353 666.986 35.7678 666.521 36.8566C666.056 37.9454 665.519 38.8311 664.91 39.5136C664.301 40.1799 663.659 40.6999 662.986 41.0737C662.313 41.4475 661.623 41.6912 660.918 41.805C660.229 41.935 659.563 42 658.922 42ZM658.97 37.2467C659.515 37.2467 659.972 37.1085 660.341 36.8323C660.726 36.5398 661.03 36.0685 661.255 35.4185C661.495 34.7684 661.663 33.9153 661.76 32.859C661.872 31.7864 661.928 30.462 661.928 28.8857V20.6222C661.928 19.0458 661.872 17.7214 661.76 16.6489C661.663 15.5763 661.495 14.715 661.255 14.065C661.03 13.3987 660.726 12.9193 660.341 12.6268C659.972 12.3343 659.515 12.188 658.97 12.188C658.393 12.188 657.904 12.3343 657.503 12.6268C657.119 12.9193 656.798 13.3987 656.541 14.065C656.285 14.715 656.101 15.5763 655.988 16.6489C655.876 17.7214 655.82 19.0458 655.82 20.6222V28.8857C655.82 30.462 655.876 31.7864 655.988 32.859C656.101 33.9153 656.285 34.7684 656.541 35.4185C656.798 36.0685 657.119 36.5398 657.503 36.8323C657.904 37.1085 658.393 37.2467 658.97 37.2467Z" fill="black"/>
<path d="M673.423 8.06849H678.136L678.665 11.6518V11.6761C679.146 10.9124 679.659 10.2786 680.204 9.77481C680.749 9.25479 681.31 8.84039 681.887 8.53163C682.48 8.22287 683.082 8.00348 683.691 7.87348C684.316 7.74347 684.933 7.67847 685.542 7.67847C686.841 7.67847 687.939 7.99536 688.837 8.62914C689.735 9.26291 690.416 10.2136 690.881 11.4811C691.362 10.7499 691.867 10.1405 692.396 9.65293C692.941 9.16541 693.502 8.77539 694.079 8.48288C694.656 8.19037 695.242 7.98723 695.835 7.87348C696.428 7.74347 697.029 7.67847 697.638 7.67847C699.562 7.67847 701.045 8.36912 702.087 9.75043C703.145 11.1155 703.674 13.1712 703.674 15.9176V41.6344H697.59V16.137C697.59 15.4057 697.534 14.7882 697.422 14.2844C697.31 13.7806 697.141 13.3743 696.917 13.0656C696.692 12.7568 696.404 12.5374 696.051 12.4074C695.698 12.2612 695.274 12.188 694.777 12.188C694.216 12.188 693.654 12.3993 693.093 12.8218C692.532 13.2281 692.019 13.7969 691.554 14.5281C691.57 14.6744 691.578 14.8207 691.578 14.9669C691.578 15.1132 691.578 15.2594 691.578 15.4057V41.6344H685.494V16.137C685.494 15.4057 685.438 14.7882 685.326 14.2844C685.214 13.7806 685.045 13.3743 684.821 13.0656C684.597 12.7568 684.308 12.5374 683.955 12.4074C683.603 12.2612 683.178 12.188 682.681 12.188C682.136 12.188 681.583 12.3912 681.022 12.7974C680.46 13.2037 679.955 13.7644 679.507 14.4794V41.6344H673.423V8.06849Z" fill="black"/>
<path d="M717.958 42C716.531 42 715.265 41.7319 714.159 41.1956C713.069 40.6593 712.147 39.8224 711.393 38.6848C710.64 37.5473 710.071 36.0929 709.686 34.3215C709.301 32.534 709.109 30.3889 709.109 27.8862V21.5485C709.109 19.4196 709.261 17.5995 709.566 16.0882C709.886 14.5606 710.295 13.285 710.792 12.2612C711.305 11.2211 711.89 10.4005 712.548 9.79919C713.221 9.19791 713.91 8.74289 714.616 8.43413C715.321 8.10911 716.018 7.90598 716.708 7.82472C717.413 7.72722 718.062 7.67847 718.656 7.67847C719.746 7.67847 720.796 7.8491 721.806 8.19037C722.816 8.51538 723.706 9.08416 724.475 9.89669C725.245 10.693 725.854 11.7655 726.303 13.1143C726.768 14.4631 727 16.1451 727 18.1602C727 18.8427 726.976 19.5334 726.928 20.2322C726.896 20.9309 726.848 21.6216 726.784 22.3041C726.719 22.9704 726.631 23.6204 726.519 24.2542C726.423 24.888 726.319 25.473 726.206 26.0093H715.217V29.4219C715.217 30.8845 715.273 32.1196 715.385 33.1271C715.497 34.1184 715.682 34.9228 715.938 35.5403C716.211 36.1416 716.572 36.5804 717.02 36.8566C717.485 37.1167 718.062 37.2467 718.752 37.2467C719.121 37.2467 719.481 37.1735 719.834 37.0273C720.187 36.8648 720.491 36.6048 720.748 36.2472C721.02 35.8897 721.237 35.4185 721.397 34.8334C721.557 34.2322 721.637 33.4927 721.637 32.6152V31.567H726.711V32.859C726.711 36.0441 725.958 38.368 724.451 39.8305C722.96 41.2768 720.796 42 717.958 42ZM721.325 21.8654C721.341 21.6866 721.357 21.451 721.373 21.1584C721.389 20.8497 721.397 20.5328 721.397 20.2078C721.413 19.8828 721.421 19.5659 721.421 19.2571C721.421 18.9321 721.421 18.6558 721.421 18.4283C721.421 16.2182 721.165 14.6257 720.652 13.6506C720.139 12.6756 719.377 12.188 718.367 12.188C717.838 12.188 717.373 12.318 716.972 12.5781C716.572 12.8218 716.243 13.2443 715.986 13.8456C715.73 14.4306 715.537 15.2107 715.409 16.1857C715.281 17.1608 715.217 18.3714 715.217 19.8178V21.8654H721.325Z" fill="black"/>
<path d="M283.79 52.9187L289.479 1H343.868V19.2832H306.991L304.882 39.4505C306.416 38.4736 308.418 37.6129 310.889 36.8686C313.403 36.1242 315.853 35.752 318.239 35.752C327.485 35.752 334.58 38.7527 339.522 44.7541C344.507 50.7089 347 59.0829 347 69.876C347 76.3891 345.658 82.2974 342.974 87.601C340.332 92.8579 336.604 96.9054 331.789 99.7432C326.974 102.581 321.286 104 314.724 104C308.887 104 303.412 102.697 298.299 100.092C293.186 97.4404 289.18 93.8349 286.283 89.2757C283.386 84.6701 281.958 79.4828 282.001 73.7141H303.603C303.816 77.4359 304.903 80.39 306.863 82.5766C308.823 84.7631 311.401 85.8564 314.596 85.8564C321.84 85.8564 325.461 79.9946 325.461 68.271C325.461 57.4313 321.03 52.0115 312.168 52.0115C307.14 52.0115 303.39 53.7794 300.919 57.315L283.79 52.9187Z" fill="black"/>
<mask id="path-5-outside-1" maskUnits="userSpaceOnUse" x="360" y="51" width="369" height="55" fill="black">
<rect fill="white" x="360" y="51" width="369" height="55"/>
<path d="M371.68 52.4572H380.839L390.55 104.512H382.498L381.054 95.1863H371.465L370.082 104.512H362L371.68 52.4572ZM380.132 89.2432L376.444 63.3071H376.106L372.387 89.2432H380.132Z"/>
<path d="M406.254 105C405.639 105 404.922 104.929 404.102 104.787C403.283 104.665 402.433 104.39 401.552 103.964C400.691 103.537 399.841 102.938 399.001 102.166C398.161 101.373 397.403 100.337 396.727 99.0569C396.071 97.7566 395.538 96.1717 395.129 94.3025C394.719 92.4129 394.514 90.1677 394.514 87.567V69.1282C394.514 66.5072 394.729 64.2722 395.159 62.4232C395.59 60.554 396.163 58.9895 396.88 57.7297C397.598 56.4497 398.417 55.4338 399.339 54.682C400.281 53.9302 401.255 53.3613 402.258 52.9753C403.262 52.5689 404.256 52.3048 405.239 52.1829C406.223 52.061 407.135 52 407.975 52C410.105 52 411.898 52.2946 413.353 52.8838C414.828 53.4528 416.016 54.2452 416.917 55.2611C417.839 56.2567 418.495 57.425 418.884 58.766C419.294 60.107 419.499 61.5292 419.499 63.0328C419.499 64.1503 419.427 65.1865 419.284 66.1415C419.161 67.0761 418.987 68.1123 418.761 69.2501H412.4V66.7815C412.4 61.0721 410.853 58.2174 407.759 58.2174C406.919 58.2174 406.192 58.3596 405.578 58.644C404.963 58.9285 404.451 59.4161 404.041 60.107C403.631 60.7775 403.324 61.6715 403.119 62.789C402.935 63.9065 402.842 65.2983 402.842 66.9643V90.5538C402.842 92.1792 402.935 93.5304 403.119 94.6072C403.324 95.6841 403.621 96.5476 404.01 97.1978C404.42 97.848 404.922 98.3153 405.516 98.5998C406.131 98.8639 406.858 98.996 407.698 98.996C408.579 98.996 409.337 98.7725 409.972 98.3255C410.607 97.8582 411.13 97.2283 411.539 96.4359C411.949 95.6435 412.246 94.7088 412.431 93.632C412.636 92.5551 412.738 91.3868 412.738 90.1271V83.3307H408.651V78.1495H420.482V104.512H415.197L414.336 99.575C413.332 101.505 412.175 102.897 410.863 103.75C409.573 104.583 408.036 105 406.254 105Z"/>
<path d="M427.858 52.4572H447.311V58.6745H435.817V74.2484H444.699V80.4658H435.817V98.295H447.618V104.512H427.858V52.4572Z"/>
<path d="M466.211 77.4485H489.106V83.6354H466.211V77.4485Z"/>
<path d="M510.956 52.4572H531.024V58.6745H518.916V74.2484H528.412V80.4658H518.916V104.512H510.956V52.4572Z"/>
<path d="M536.341 52.4572H544.976C545.96 52.4572 547.035 52.4978 548.203 52.5791C549.391 52.6603 550.57 52.8635 551.737 53.1886C552.926 53.4934 554.063 53.9607 555.149 54.5906C556.255 55.2204 557.228 56.084 558.068 57.1811C558.929 58.2783 559.615 59.66 560.127 61.326C560.639 62.9718 560.895 64.9732 560.895 67.3301V68.6406C560.895 72.6026 560.322 75.8332 559.174 78.3324C558.027 80.8112 556.337 82.5992 554.104 83.6964L562.524 104.512H554.104L547.128 85.0374H544.147V104.512H536.341V52.4572ZM545.345 79.3381C546.738 79.3381 547.916 79.1857 548.879 78.881C549.842 78.5762 550.621 78.0682 551.215 77.3571C551.809 76.6256 552.239 75.6707 552.506 74.4922C552.772 73.2935 552.905 71.8204 552.905 70.073V65.9586C552.905 64.6176 552.782 63.4595 552.536 62.4842C552.29 61.5089 551.87 60.7063 551.276 60.0765C550.703 59.4466 549.934 58.9793 548.971 58.6745C548.009 58.3698 546.8 58.2174 545.345 58.2174H544.147V79.3381H545.345Z"/>
<path d="M568.548 52.4572H576.507V104.512H568.548V52.4572Z"/>
<path d="M585.511 52.4572H604.965V58.6745H593.471V74.2484H602.352V80.4658H593.471V98.295H605.272V104.512H585.511V52.4572Z"/>
<path d="M611.019 52.4572H617.472L630.195 87.2927H630.38C630.318 86.48 630.236 85.5758 630.134 84.5802C630.031 83.5846 629.939 82.457 629.857 81.1972C629.775 79.9172 629.704 78.4746 629.642 76.8695C629.581 75.2643 629.55 73.456 629.55 71.4445V52.4572H636.68V104.512H630.165L617.503 70.5911H617.257C617.319 71.5055 617.401 72.5011 617.503 73.5779C617.606 74.6345 617.698 75.884 617.78 77.3266C617.862 78.7692 617.933 80.4556 617.995 82.3859C618.056 84.2958 618.087 86.5714 618.087 89.2128V104.512H611.019V52.4572Z"/>
<path d="M645.684 52.4572H653.951C655.201 52.4572 656.491 52.4978 657.823 52.5791C659.175 52.64 660.486 52.8534 661.757 53.2191C663.047 53.5848 664.256 54.1537 665.383 54.9258C666.53 55.6776 667.534 56.7443 668.395 58.1259C669.255 59.4873 669.931 61.2143 670.423 63.3071C670.935 65.3795 671.191 67.9193 671.191 70.9264V86.0431C671.191 89.0502 670.935 91.6002 670.423 93.6929C669.931 95.7857 669.255 97.5127 668.395 98.8741C667.534 100.235 666.53 101.302 665.383 102.074C664.256 102.826 663.047 103.385 661.757 103.75C660.486 104.116 659.175 104.34 657.823 104.421C656.491 104.482 655.201 104.512 653.951 104.512H645.684V52.4572ZM655.672 98.996C657.106 98.996 658.284 98.8131 659.206 98.4474C660.148 98.0817 660.886 97.4416 661.419 96.5273C661.972 95.5927 662.351 94.333 662.556 92.7481C662.761 91.143 662.863 89.1213 662.863 86.6832V70.5302C662.863 68.092 662.761 66.0805 662.556 64.4957C662.351 62.8905 661.972 61.6308 661.419 60.7165C660.886 59.7819 660.148 59.1317 659.206 58.766C658.284 58.4002 657.106 58.2174 655.672 58.2174H653.644V98.996H655.672Z"/>
<path d="M678.321 52.4572H686.281V98.295H697.129V104.512H678.321V52.4572Z"/>
<path d="M708.407 87.1708L697.836 52.4572H705.857L712.28 77.3571H712.648L719.01 52.4572H727L716.367 87.1708V104.512H708.407V87.1708Z"/>
</mask>
<path d="M371.68 52.4572H380.839L390.55 104.512H382.498L381.054 95.1863H371.465L370.082 104.512H362L371.68 52.4572ZM380.132 89.2432L376.444 63.3071H376.106L372.387 89.2432H380.132Z" fill="black"/>
<path d="M406.254 105C405.639 105 404.922 104.929 404.102 104.787C403.283 104.665 402.433 104.39 401.552 103.964C400.691 103.537 399.841 102.938 399.001 102.166C398.161 101.373 397.403 100.337 396.727 99.0569C396.071 97.7566 395.538 96.1717 395.129 94.3025C394.719 92.4129 394.514 90.1677 394.514 87.567V69.1282C394.514 66.5072 394.729 64.2722 395.159 62.4232C395.59 60.554 396.163 58.9895 396.88 57.7297C397.598 56.4497 398.417 55.4338 399.339 54.682C400.281 53.9302 401.255 53.3613 402.258 52.9753C403.262 52.5689 404.256 52.3048 405.239 52.1829C406.223 52.061 407.135 52 407.975 52C410.105 52 411.898 52.2946 413.353 52.8838C414.828 53.4528 416.016 54.2452 416.917 55.2611C417.839 56.2567 418.495 57.425 418.884 58.766C419.294 60.107 419.499 61.5292 419.499 63.0328C419.499 64.1503 419.427 65.1865 419.284 66.1415C419.161 67.0761 418.987 68.1123 418.761 69.2501H412.4V66.7815C412.4 61.0721 410.853 58.2174 407.759 58.2174C406.919 58.2174 406.192 58.3596 405.578 58.644C404.963 58.9285 404.451 59.4161 404.041 60.107C403.631 60.7775 403.324 61.6715 403.119 62.789C402.935 63.9065 402.842 65.2983 402.842 66.9643V90.5538C402.842 92.1792 402.935 93.5304 403.119 94.6072C403.324 95.6841 403.621 96.5476 404.01 97.1978C404.42 97.848 404.922 98.3153 405.516 98.5998C406.131 98.8639 406.858 98.996 407.698 98.996C408.579 98.996 409.337 98.7725 409.972 98.3255C410.607 97.8582 411.13 97.2283 411.539 96.4359C411.949 95.6435 412.246 94.7088 412.431 93.632C412.636 92.5551 412.738 91.3868 412.738 90.1271V83.3307H408.651V78.1495H420.482V104.512H415.197L414.336 99.575C413.332 101.505 412.175 102.897 410.863 103.75C409.573 104.583 408.036 105 406.254 105Z" fill="black"/>
<path d="M427.858 52.4572H447.311V58.6745H435.817V74.2484H444.699V80.4658H435.817V98.295H447.618V104.512H427.858V52.4572Z" fill="black"/>
<path d="M466.211 77.4485H489.106V83.6354H466.211V77.4485Z" fill="black"/>
<path d="M510.956 52.4572H531.024V58.6745H518.916V74.2484H528.412V80.4658H518.916V104.512H510.956V52.4572Z" fill="black"/>
<path d="M536.341 52.4572H544.976C545.96 52.4572 547.035 52.4978 548.203 52.5791C549.391 52.6603 550.57 52.8635 551.737 53.1886C552.926 53.4934 554.063 53.9607 555.149 54.5906C556.255 55.2204 557.228 56.084 558.068 57.1811C558.929 58.2783 559.615 59.66 560.127 61.326C560.639 62.9718 560.895 64.9732 560.895 67.3301V68.6406C560.895 72.6026 560.322 75.8332 559.174 78.3324C558.027 80.8112 556.337 82.5992 554.104 83.6964L562.524 104.512H554.104L547.128 85.0374H544.147V104.512H536.341V52.4572ZM545.345 79.3381C546.738 79.3381 547.916 79.1857 548.879 78.881C549.842 78.5762 550.621 78.0682 551.215 77.3571C551.809 76.6256 552.239 75.6707 552.506 74.4922C552.772 73.2935 552.905 71.8204 552.905 70.073V65.9586C552.905 64.6176 552.782 63.4595 552.536 62.4842C552.29 61.5089 551.87 60.7063 551.276 60.0765C550.703 59.4466 549.934 58.9793 548.971 58.6745C548.009 58.3698 546.8 58.2174 545.345 58.2174H544.147V79.3381H545.345Z" fill="black"/>
<path d="M568.548 52.4572H576.507V104.512H568.548V52.4572Z" fill="black"/>
<path d="M585.511 52.4572H604.965V58.6745H593.471V74.2484H602.352V80.4658H593.471V98.295H605.272V104.512H585.511V52.4572Z" fill="black"/>
<path d="M611.019 52.4572H617.472L630.195 87.2927H630.38C630.318 86.48 630.236 85.5758 630.134 84.5802C630.031 83.5846 629.939 82.457 629.857 81.1972C629.775 79.9172 629.704 78.4746 629.642 76.8695C629.581 75.2643 629.55 73.456 629.55 71.4445V52.4572H636.68V104.512H630.165L617.503 70.5911H617.257C617.319 71.5055 617.401 72.5011 617.503 73.5779C617.606 74.6345 617.698 75.884 617.78 77.3266C617.862 78.7692 617.933 80.4556 617.995 82.3859C618.056 84.2958 618.087 86.5714 618.087 89.2128V104.512H611.019V52.4572Z" fill="black"/>
<path d="M645.684 52.4572H653.951C655.201 52.4572 656.491 52.4978 657.823 52.5791C659.175 52.64 660.486 52.8534 661.757 53.2191C663.047 53.5848 664.256 54.1537 665.383 54.9258C666.53 55.6776 667.534 56.7443 668.395 58.1259C669.255 59.4873 669.931 61.2143 670.423 63.3071C670.935 65.3795 671.191 67.9193 671.191 70.9264V86.0431C671.191 89.0502 670.935 91.6002 670.423 93.6929C669.931 95.7857 669.255 97.5127 668.395 98.8741C667.534 100.235 666.53 101.302 665.383 102.074C664.256 102.826 663.047 103.385 661.757 103.75C660.486 104.116 659.175 104.34 657.823 104.421C656.491 104.482 655.201 104.512 653.951 104.512H645.684V52.4572ZM655.672 98.996C657.106 98.996 658.284 98.8131 659.206 98.4474C660.148 98.0817 660.886 97.4416 661.419 96.5273C661.972 95.5927 662.351 94.333 662.556 92.7481C662.761 91.143 662.863 89.1213 662.863 86.6832V70.5302C662.863 68.092 662.761 66.0805 662.556 64.4957C662.351 62.8905 661.972 61.6308 661.419 60.7165C660.886 59.7819 660.148 59.1317 659.206 58.766C658.284 58.4002 657.106 58.2174 655.672 58.2174H653.644V98.996H655.672Z" fill="black"/>
<path d="M678.321 52.4572H686.281V98.295H697.129V104.512H678.321V52.4572Z" fill="black"/>
<path d="M708.407 87.1708L697.836 52.4572H705.857L712.28 77.3571H712.648L719.01 52.4572H727L716.367 87.1708V104.512H708.407V87.1708Z" fill="black"/>
<path d="M371.68 52.4572H380.839L390.55 104.512H382.498L381.054 95.1863H371.465L370.082 104.512H362L371.68 52.4572ZM380.132 89.2432L376.444 63.3071H376.106L372.387 89.2432H380.132Z" stroke="black" stroke-width="2" mask="url(#path-5-outside-1)"/>
<path d="M406.254 105C405.639 105 404.922 104.929 404.102 104.787C403.283 104.665 402.433 104.39 401.552 103.964C400.691 103.537 399.841 102.938 399.001 102.166C398.161 101.373 397.403 100.337 396.727 99.0569C396.071 97.7566 395.538 96.1717 395.129 94.3025C394.719 92.4129 394.514 90.1677 394.514 87.567V69.1282C394.514 66.5072 394.729 64.2722 395.159 62.4232C395.59 60.554 396.163 58.9895 396.88 57.7297C397.598 56.4497 398.417 55.4338 399.339 54.682C400.281 53.9302 401.255 53.3613 402.258 52.9753C403.262 52.5689 404.256 52.3048 405.239 52.1829C406.223 52.061 407.135 52 407.975 52C410.105 52 411.898 52.2946 413.353 52.8838C414.828 53.4528 416.016 54.2452 416.917 55.2611C417.839 56.2567 418.495 57.425 418.884 58.766C419.294 60.107 419.499 61.5292 419.499 63.0328C419.499 64.1503 419.427 65.1865 419.284 66.1415C419.161 67.0761 418.987 68.1123 418.761 69.2501H412.4V66.7815C412.4 61.0721 410.853 58.2174 407.759 58.2174C406.919 58.2174 406.192 58.3596 405.578 58.644C404.963 58.9285 404.451 59.4161 404.041 60.107C403.631 60.7775 403.324 61.6715 403.119 62.789C402.935 63.9065 402.842 65.2983 402.842 66.9643V90.5538C402.842 92.1792 402.935 93.5304 403.119 94.6072C403.324 95.6841 403.621 96.5476 404.01 97.1978C404.42 97.848 404.922 98.3153 405.516 98.5998C406.131 98.8639 406.858 98.996 407.698 98.996C408.579 98.996 409.337 98.7725 409.972 98.3255C410.607 97.8582 411.13 97.2283 411.539 96.4359C411.949 95.6435 412.246 94.7088 412.431 93.632C412.636 92.5551 412.738 91.3868 412.738 90.1271V83.3307H408.651V78.1495H420.482V104.512H415.197L414.336 99.575C413.332 101.505 412.175 102.897 410.863 103.75C409.573 104.583 408.036 105 406.254 105Z" stroke="black" stroke-width="2" mask="url(#path-5-outside-1)"/>
<path d="M427.858 52.4572H447.311V58.6745H435.817V74.2484H444.699V80.4658H435.817V98.295H447.618V104.512H427.858V52.4572Z" stroke="black" stroke-width="2" mask="url(#path-5-outside-1)"/>
<path d="M466.211 77.4485H489.106V83.6354H466.211V77.4485Z" stroke="black" stroke-width="2" mask="url(#path-5-outside-1)"/>
<path d="M510.956 52.4572H531.024V58.6745H518.916V74.2484H528.412V80.4658H518.916V104.512H510.956V52.4572Z" stroke="black" stroke-width="2" mask="url(#path-5-outside-1)"/>
<path d="M536.341 52.4572H544.976C545.96 52.4572 547.035 52.4978 548.203 52.5791C549.391 52.6603 550.57 52.8635 551.737 53.1886C552.926 53.4934 554.063 53.9607 555.149 54.5906C556.255 55.2204 557.228 56.084 558.068 57.1811C558.929 58.2783 559.615 59.66 560.127 61.326C560.639 62.9718 560.895 64.9732 560.895 67.3301V68.6406C560.895 72.6026 560.322 75.8332 559.174 78.3324C558.027 80.8112 556.337 82.5992 554.104 83.6964L562.524 104.512H554.104L547.128 85.0374H544.147V104.512H536.341V52.4572ZM545.345 79.3381C546.738 79.3381 547.916 79.1857 548.879 78.881C549.842 78.5762 550.621 78.0682 551.215 77.3571C551.809 76.6256 552.239 75.6707 552.506 74.4922C552.772 73.2935 552.905 71.8204 552.905 70.073V65.9586C552.905 64.6176 552.782 63.4595 552.536 62.4842C552.29 61.5089 551.87 60.7063 551.276 60.0765C550.703 59.4466 549.934 58.9793 548.971 58.6745C548.009 58.3698 546.8 58.2174 545.345 58.2174H544.147V79.3381H545.345Z" stroke="black" stroke-width="2" mask="url(#path-5-outside-1)"/>
<path d="M568.548 52.4572H576.507V104.512H568.548V52.4572Z" stroke="black" stroke-width="2" mask="url(#path-5-outside-1)"/>
<path d="M585.511 52.4572H604.965V58.6745H593.471V74.2484H602.352V80.4658H593.471V98.295H605.272V104.512H585.511V52.4572Z" stroke="black" stroke-width="2" mask="url(#path-5-outside-1)"/>
<path d="M611.019 52.4572H617.472L630.195 87.2927H630.38C630.318 86.48 630.236 85.5758 630.134 84.5802C630.031 83.5846 629.939 82.457 629.857 81.1972C629.775 79.9172 629.704 78.4746 629.642 76.8695C629.581 75.2643 629.55 73.456 629.55 71.4445V52.4572H636.68V104.512H630.165L617.503 70.5911H617.257C617.319 71.5055 617.401 72.5011 617.503 73.5779C617.606 74.6345 617.698 75.884 617.78 77.3266C617.862 78.7692 617.933 80.4556 617.995 82.3859C618.056 84.2958 618.087 86.5714 618.087 89.2128V104.512H611.019V52.4572Z" stroke="black" stroke-width="2" mask="url(#path-5-outside-1)"/>
<path d="M645.684 52.4572H653.951C655.201 52.4572 656.491 52.4978 657.823 52.5791C659.175 52.64 660.486 52.8534 661.757 53.2191C663.047 53.5848 664.256 54.1537 665.383 54.9258C666.53 55.6776 667.534 56.7443 668.395 58.1259C669.255 59.4873 669.931 61.2143 670.423 63.3071C670.935 65.3795 671.191 67.9193 671.191 70.9264V86.0431C671.191 89.0502 670.935 91.6002 670.423 93.6929C669.931 95.7857 669.255 97.5127 668.395 98.8741C667.534 100.235 666.53 101.302 665.383 102.074C664.256 102.826 663.047 103.385 661.757 103.75C660.486 104.116 659.175 104.34 657.823 104.421C656.491 104.482 655.201 104.512 653.951 104.512H645.684V52.4572ZM655.672 98.996C657.106 98.996 658.284 98.8131 659.206 98.4474C660.148 98.0817 660.886 97.4416 661.419 96.5273C661.972 95.5927 662.351 94.333 662.556 92.7481C662.761 91.143 662.863 89.1213 662.863 86.6832V70.5302C662.863 68.092 662.761 66.0805 662.556 64.4957C662.351 62.8905 661.972 61.6308 661.419 60.7165C660.886 59.7819 660.148 59.1317 659.206 58.766C658.284 58.4002 657.106 58.2174 655.672 58.2174H653.644V98.996H655.672Z" stroke="black" stroke-width="2" mask="url(#path-5-outside-1)"/>
<path d="M678.321 52.4572H686.281V98.295H697.129V104.512H678.321V52.4572Z" stroke="black" stroke-width="2" mask="url(#path-5-outside-1)"/>
<path d="M708.407 87.1708L697.836 52.4572H705.857L712.28 77.3571H712.648L719.01 52.4572H727L716.367 87.1708V104.512H708.407V87.1708Z" stroke="black" stroke-width="2" mask="url(#path-5-outside-1)"/>
<rect x="352" y="79" width="385" height="31" fill="#155777" fill-opacity="0.47"/>
</svg>
