<svg width="120" height="120" viewBox="0 0 120 120" fill="none" xmlns="http://www.w3.org/2000/svg">
<circle cx="60" cy="60" r="60" fill="#363636" fill-opacity="0.5"/>
<path d="M61.259 23.2001C60.6132 23.2265 59.8669 23.5041 59.3961 23.9664L44.0411 39.0562C43.1612 40.0787 42.7979 42.0394 43.8153 43.1823C44.8174 44.308 46.761 44.2745 47.767 43.153L58.5494 32.5431V57.1707C58.5494 58.7332 59.7625 60 61.259 60C62.7555 60 63.9687 58.7332 63.9687 57.1707V32.5431L74.7511 43.153C75.6773 44.1185 77.6892 44.2969 78.7027 43.1823C79.7162 42.0679 79.3924 40.0367 78.4769 39.0562L63.1219 23.9664C62.5965 23.45 61.9799 23.1984 61.259 23.2001Z" fill="white"/>
<path d="M48.5625 80.375H45.3398V77.9844H54.8086V80.375H51.5977V98H48.5625V80.375ZM61.2891 98.1758C60.9688 98.1758 60.6211 98.1484 60.2461 98.0938C59.8711 98.0469 59.5 97.9414 59.1328 97.7773C58.7656 97.6133 58.4102 97.3828 58.0664 97.0859C57.7305 96.7812 57.4297 96.3828 57.1641 95.8906C56.9062 95.3984 56.6992 94.793 56.543 94.0742C56.3867 93.3477 56.3086 92.4844 56.3086 91.4844V84.3945C56.3086 83.3867 56.3867 82.5273 56.543 81.8164C56.707 81.0977 56.9219 80.4961 57.1875 80.0117C57.4531 79.5195 57.7539 79.1289 58.0898 78.8398C58.4336 78.5508 58.7891 78.332 59.1562 78.1836C59.5312 78.0273 59.9023 77.9258 60.2695 77.8789C60.6367 77.832 60.9766 77.8086 61.2891 77.8086C61.5859 77.8086 61.9141 77.832 62.2734 77.8789C62.6406 77.918 63.0039 78.0117 63.3633 78.1602C63.7305 78.3008 64.0859 78.5156 64.4297 78.8047C64.7734 79.0859 65.0781 79.4727 65.3438 79.9648C65.6094 80.4492 65.8203 81.0547 65.9766 81.7812C66.1406 82.5 66.2227 83.3711 66.2227 84.3945V91.4844C66.2227 92.4766 66.1406 93.332 65.9766 94.0508C65.8125 94.7617 65.5977 95.3672 65.332 95.8672C65.0664 96.3594 64.7578 96.7578 64.4062 97.0625C64.0625 97.3594 63.707 97.5938 63.3398 97.7656C62.9805 97.9297 62.6211 98.0391 62.2617 98.0938C61.9023 98.1484 61.5781 98.1758 61.2891 98.1758ZM61.2891 95.8906C61.5859 95.8906 61.8438 95.8398 62.0625 95.7383C62.2891 95.6367 62.4727 95.4609 62.6133 95.2109C62.7617 94.9609 62.8711 94.6328 62.9414 94.2266C63.0195 93.8125 63.0586 93.293 63.0586 92.668V83.5625C63.0586 82.9219 63.0195 82.3867 62.9414 81.957C62.8711 81.5273 62.7617 81.1836 62.6133 80.9258C62.4727 80.6602 62.2891 80.4727 62.0625 80.3633C61.8438 80.2539 61.5859 80.1992 61.2891 80.1992C60.9844 80.1992 60.7188 80.2539 60.4922 80.3633C60.2656 80.4727 60.0781 80.6602 59.9297 80.9258C59.7812 81.1836 59.668 81.5273 59.5898 81.957C59.5195 82.3867 59.4844 82.9219 59.4844 83.5625V92.668C59.4844 93.293 59.5195 93.8125 59.5898 94.2266C59.668 94.6328 59.7812 94.9609 59.9297 95.2109C60.0781 95.4609 60.2656 95.6367 60.4922 95.7383C60.7188 95.8398 60.9844 95.8906 61.2891 95.8906ZM69.0938 77.9844H72.1289C72.5117 77.9844 72.9297 78.0039 73.3828 78.043C73.8438 78.0742 74.3008 78.1562 74.7539 78.2891C75.2148 78.4141 75.6562 78.6094 76.0781 78.875C76.5078 79.1406 76.8867 79.5039 77.2148 79.9648C77.543 80.418 77.8047 80.9883 78 81.6758C78.2031 82.3633 78.3047 83.1992 78.3047 84.1836V84.8867C78.3047 85.957 78.2109 86.875 78.0234 87.6406C77.8438 88.3984 77.6016 89.0391 77.2969 89.5625C76.9922 90.0781 76.6367 90.4922 76.2305 90.8047C75.832 91.1172 75.4141 91.3555 74.9766 91.5195C74.5469 91.6758 74.1094 91.7812 73.6641 91.8359C73.2266 91.8828 72.8125 91.9062 72.4219 91.9062H72.1289V98H69.0938V77.9844ZM72.2812 89.6797C72.8281 89.6797 73.2891 89.6016 73.6641 89.4453C74.0391 89.2812 74.3359 89.0312 74.5547 88.6953C74.7812 88.3516 74.9414 87.9141 75.0352 87.3828C75.1367 86.8438 75.1875 86.1992 75.1875 85.4492V83.6445C75.1875 83.0508 75.1445 82.5391 75.0586 82.1094C74.9727 81.6719 74.8164 81.3125 74.5898 81.0312C74.3711 80.75 74.0742 80.543 73.6992 80.4102C73.3242 80.2695 72.8516 80.1992 72.2812 80.1992H72.1289V89.6797H72.2812Z" fill="white"/>
</svg>
