<svg width="187" height="50" viewBox="0 0 187 50" fill="none" xmlns="http://www.w3.org/2000/svg">
<rect width="187" height="50" rx="4" fill="#155777"/>
<path d="M16.9355 15.4497H19.5547L22.332 30.4614H20.0293L19.6162 27.772H16.874L16.4785 30.4614H14.167L16.9355 15.4497ZM19.3525 26.0581L18.2979 18.5786H18.2012L17.1377 26.0581H19.3525ZM23.1758 27.9302C23.1758 27.6665 23.1992 27.4116 23.2461 27.1655C23.2988 26.9194 23.3486 26.7231 23.3955 26.5767H24.96C24.96 27.0161 24.9805 27.3853 25.0215 27.6841C25.0684 27.9771 25.1416 28.2114 25.2412 28.3872C25.3408 28.563 25.4727 28.689 25.6367 28.7651C25.8066 28.8413 26.0117 28.8794 26.252 28.8794C26.5859 28.8794 26.8291 28.7856 26.9814 28.5981C27.1338 28.4106 27.21 28.1938 27.21 27.9478C27.21 27.8188 27.1924 27.6958 27.1572 27.5786C27.1221 27.4614 27.0723 27.3442 27.0078 27.2271C26.9434 27.104 26.8643 26.981 26.7705 26.8579C26.6768 26.7349 26.5713 26.6001 26.4541 26.4536L24.8281 24.5376C24.6172 24.2739 24.4121 24.0073 24.2129 23.7378C24.0195 23.4624 23.8467 23.1812 23.6943 22.894C23.5479 22.6011 23.4277 22.2964 23.334 21.98C23.2461 21.6636 23.2021 21.3296 23.2021 20.978C23.2021 20.5093 23.2812 20.1021 23.4395 19.7563C23.6035 19.4106 23.8203 19.1235 24.0898 18.895C24.3652 18.6665 24.6816 18.4966 25.0391 18.3853C25.3965 18.2739 25.7744 18.2183 26.1729 18.2183C26.6123 18.2183 27.0078 18.271 27.3594 18.3765C27.7109 18.4819 28.0127 18.6401 28.2646 18.8511C28.5166 19.062 28.71 19.3257 28.8447 19.6421C28.9795 19.9526 29.0469 20.3159 29.0469 20.7319C29.0469 21.0132 29.0205 21.2856 28.9678 21.5493C28.9209 21.813 28.874 22.0386 28.8271 22.2261H27.2891C27.2832 21.8276 27.2656 21.479 27.2363 21.1802C27.207 20.8813 27.1514 20.6353 27.0693 20.4419C26.9932 20.2427 26.8848 20.0933 26.7441 19.9937C26.6094 19.894 26.4307 19.8442 26.208 19.8442C26.0146 19.8442 25.8535 19.8765 25.7246 19.9409C25.5957 19.9995 25.4902 20.0786 25.4082 20.1782C25.332 20.2778 25.2764 20.3892 25.2412 20.5122C25.2119 20.6353 25.1973 20.7612 25.1973 20.8901C25.1973 21.1714 25.2646 21.4321 25.3994 21.6724C25.5342 21.9126 25.7129 22.1733 25.9355 22.4546L27.7109 24.5376C27.8398 24.6958 27.9893 24.8892 28.1592 25.1177C28.3291 25.3403 28.4902 25.5894 28.6426 25.8647C28.7949 26.1343 28.9238 26.4302 29.0293 26.7524C29.1348 27.0747 29.1875 27.4116 29.1875 27.7632C29.1875 28.1909 29.1201 28.5806 28.9854 28.9321C28.8506 29.2778 28.6514 29.5737 28.3877 29.8198C28.124 30.0659 27.7988 30.2563 27.4121 30.3911C27.0312 30.5259 26.5947 30.5933 26.1025 30.5933C25.6982 30.5933 25.3174 30.5493 24.96 30.4614C24.6025 30.3677 24.292 30.2183 24.0283 30.0132C23.7646 29.8022 23.5566 29.5269 23.4043 29.187C23.252 28.8472 23.1758 28.4282 23.1758 27.9302ZM30.4707 27.9302C30.4707 27.6665 30.4941 27.4116 30.541 27.1655C30.5938 26.9194 30.6436 26.7231 30.6904 26.5767H32.2549C32.2549 27.0161 32.2754 27.3853 32.3164 27.6841C32.3633 27.9771 32.4365 28.2114 32.5361 28.3872C32.6357 28.563 32.7676 28.689 32.9316 28.7651C33.1016 28.8413 33.3066 28.8794 33.5469 28.8794C33.8809 28.8794 34.124 28.7856 34.2764 28.5981C34.4287 28.4106 34.5049 28.1938 34.5049 27.9478C34.5049 27.8188 34.4873 27.6958 34.4521 27.5786C34.417 27.4614 34.3672 27.3442 34.3027 27.2271C34.2383 27.104 34.1592 26.981 34.0654 26.8579C33.9717 26.7349 33.8662 26.6001 33.749 26.4536L32.123 24.5376C31.9121 24.2739 31.707 24.0073 31.5078 23.7378C31.3145 23.4624 31.1416 23.1812 30.9893 22.894C30.8428 22.6011 30.7227 22.2964 30.6289 21.98C30.541 21.6636 30.4971 21.3296 30.4971 20.978C30.4971 20.5093 30.5762 20.1021 30.7344 19.7563C30.8984 19.4106 31.1152 19.1235 31.3848 18.895C31.6602 18.6665 31.9766 18.4966 32.334 18.3853C32.6914 18.2739 33.0693 18.2183 33.4678 18.2183C33.9072 18.2183 34.3027 18.271 34.6543 18.3765C35.0059 18.4819 35.3076 18.6401 35.5596 18.8511C35.8115 19.062 36.0049 19.3257 36.1396 19.6421C36.2744 19.9526 36.3418 20.3159 36.3418 20.7319C36.3418 21.0132 36.3154 21.2856 36.2627 21.5493C36.2158 21.813 36.1689 22.0386 36.1221 22.2261H34.584C34.5781 21.8276 34.5605 21.479 34.5312 21.1802C34.502 20.8813 34.4463 20.6353 34.3643 20.4419C34.2881 20.2427 34.1797 20.0933 34.0391 19.9937C33.9043 19.894 33.7256 19.8442 33.5029 19.8442C33.3096 19.8442 33.1484 19.8765 33.0195 19.9409C32.8906 19.9995 32.7852 20.0786 32.7031 20.1782C32.627 20.2778 32.5713 20.3892 32.5361 20.5122C32.5068 20.6353 32.4922 20.7612 32.4922 20.8901C32.4922 21.1714 32.5596 21.4321 32.6943 21.6724C32.8291 21.9126 33.0078 22.1733 33.2305 22.4546L35.0059 24.5376C35.1348 24.6958 35.2842 24.8892 35.4541 25.1177C35.624 25.3403 35.7852 25.5894 35.9375 25.8647C36.0898 26.1343 36.2188 26.4302 36.3242 26.7524C36.4297 27.0747 36.4824 27.4116 36.4824 27.7632C36.4824 28.1909 36.415 28.5806 36.2803 28.9321C36.1455 29.2778 35.9463 29.5737 35.6826 29.8198C35.4189 30.0659 35.0938 30.2563 34.707 30.3911C34.3262 30.5259 33.8896 30.5933 33.3975 30.5933C32.9932 30.5933 32.6123 30.5493 32.2549 30.4614C31.8975 30.3677 31.5869 30.2183 31.3232 30.0132C31.0596 29.8022 30.8516 29.5269 30.6992 29.187C30.5469 28.8472 30.4707 28.4282 30.4707 27.9302ZM41.1582 30.5933C40.6367 30.5933 40.1738 30.4966 39.7695 30.3032C39.3711 30.1099 39.0342 29.8081 38.7588 29.3979C38.4834 28.9878 38.2754 28.4634 38.1348 27.8247C37.9941 27.1802 37.9238 26.4067 37.9238 25.5044V23.2192C37.9238 22.4517 37.9795 21.7954 38.0908 21.2505C38.208 20.6997 38.3574 20.2397 38.5391 19.8706C38.7266 19.4956 38.9404 19.1997 39.1807 18.9829C39.4268 18.7661 39.6787 18.6021 39.9365 18.4907C40.1943 18.3735 40.4492 18.3003 40.7012 18.271C40.959 18.2358 41.1963 18.2183 41.4131 18.2183C41.8115 18.2183 42.1953 18.2798 42.5645 18.4028C42.9336 18.52 43.2588 18.7251 43.54 19.0181C43.8213 19.3052 44.0439 19.6919 44.208 20.1782C44.3779 20.6646 44.4629 21.271 44.4629 21.9976C44.4629 22.2437 44.4541 22.4927 44.4365 22.7446C44.4248 22.9966 44.4072 23.2456 44.3838 23.4917C44.3604 23.7319 44.3281 23.9663 44.2871 24.1948C44.252 24.4233 44.2139 24.6343 44.1729 24.8276H40.1562V26.0581C40.1562 26.5854 40.1768 27.0308 40.2178 27.394C40.2588 27.7515 40.3262 28.0415 40.4199 28.2642C40.5195 28.481 40.6514 28.6392 40.8154 28.7388C40.9854 28.8325 41.1963 28.8794 41.4482 28.8794C41.583 28.8794 41.7148 28.853 41.8438 28.8003C41.9727 28.7417 42.084 28.6479 42.1777 28.519C42.2773 28.3901 42.3564 28.2202 42.415 28.0093C42.4736 27.7925 42.5029 27.5259 42.5029 27.2095V26.8315H44.3574V27.2974C44.3574 28.4458 44.082 29.2837 43.5312 29.811C42.9863 30.3325 42.1953 30.5933 41.1582 30.5933ZM42.3887 23.3335C42.3945 23.269 42.4004 23.1841 42.4062 23.0786C42.4121 22.9673 42.415 22.853 42.415 22.7358C42.4209 22.6187 42.4238 22.5044 42.4238 22.3931C42.4238 22.2759 42.4238 22.1763 42.4238 22.0942C42.4238 21.2974 42.3301 20.7231 42.1426 20.3716C41.9551 20.02 41.6768 19.8442 41.3076 19.8442C41.1143 19.8442 40.9443 19.8911 40.7979 19.9849C40.6514 20.0728 40.5312 20.2251 40.4375 20.4419C40.3438 20.6528 40.2734 20.9341 40.2266 21.2856C40.1797 21.6372 40.1562 22.0737 40.1562 22.5952V23.3335H42.3887ZM45.8691 27.9302C45.8691 27.6665 45.8926 27.4116 45.9395 27.1655C45.9922 26.9194 46.042 26.7231 46.0889 26.5767H47.6533C47.6533 27.0161 47.6738 27.3853 47.7148 27.6841C47.7617 27.9771 47.835 28.2114 47.9346 28.3872C48.0342 28.563 48.166 28.689 48.3301 28.7651C48.5 28.8413 48.7051 28.8794 48.9453 28.8794C49.2793 28.8794 49.5225 28.7856 49.6748 28.5981C49.8271 28.4106 49.9033 28.1938 49.9033 27.9478C49.9033 27.8188 49.8857 27.6958 49.8506 27.5786C49.8154 27.4614 49.7656 27.3442 49.7012 27.2271C49.6367 27.104 49.5576 26.981 49.4639 26.8579C49.3701 26.7349 49.2646 26.6001 49.1475 26.4536L47.5215 24.5376C47.3105 24.2739 47.1055 24.0073 46.9062 23.7378C46.7129 23.4624 46.54 23.1812 46.3877 22.894C46.2412 22.6011 46.1211 22.2964 46.0273 21.98C45.9395 21.6636 45.8955 21.3296 45.8955 20.978C45.8955 20.5093 45.9746 20.1021 46.1328 19.7563C46.2969 19.4106 46.5137 19.1235 46.7832 18.895C47.0586 18.6665 47.375 18.4966 47.7324 18.3853C48.0898 18.2739 48.4678 18.2183 48.8662 18.2183C49.3057 18.2183 49.7012 18.271 50.0527 18.3765C50.4043 18.4819 50.7061 18.6401 50.958 18.8511C51.21 19.062 51.4033 19.3257 51.5381 19.6421C51.6729 19.9526 51.7402 20.3159 51.7402 20.7319C51.7402 21.0132 51.7139 21.2856 51.6611 21.5493C51.6143 21.813 51.5674 22.0386 51.5205 22.2261H49.9824C49.9766 21.8276 49.959 21.479 49.9297 21.1802C49.9004 20.8813 49.8447 20.6353 49.7627 20.4419C49.6865 20.2427 49.5781 20.0933 49.4375 19.9937C49.3027 19.894 49.124 19.8442 48.9014 19.8442C48.708 19.8442 48.5469 19.8765 48.418 19.9409C48.2891 19.9995 48.1836 20.0786 48.1016 20.1782C48.0254 20.2778 47.9697 20.3892 47.9346 20.5122C47.9053 20.6353 47.8906 20.7612 47.8906 20.8901C47.8906 21.1714 47.958 21.4321 48.0928 21.6724C48.2275 21.9126 48.4062 22.1733 48.6289 22.4546L50.4043 24.5376C50.5332 24.6958 50.6826 24.8892 50.8525 25.1177C51.0225 25.3403 51.1836 25.5894 51.3359 25.8647C51.4883 26.1343 51.6172 26.4302 51.7227 26.7524C51.8281 27.0747 51.8809 27.4116 51.8809 27.7632C51.8809 28.1909 51.8135 28.5806 51.6787 28.9321C51.5439 29.2778 51.3447 29.5737 51.0811 29.8198C50.8174 30.0659 50.4922 30.2563 50.1055 30.3911C49.7246 30.5259 49.2881 30.5933 48.7959 30.5933C48.3916 30.5933 48.0107 30.5493 47.6533 30.4614C47.2959 30.3677 46.9854 30.2183 46.7217 30.0132C46.458 29.8022 46.25 29.5269 46.0977 29.187C45.9453 28.8472 45.8691 28.4282 45.8691 27.9302ZM53.1641 27.9302C53.1641 27.6665 53.1875 27.4116 53.2344 27.1655C53.2871 26.9194 53.3369 26.7231 53.3838 26.5767H54.9482C54.9482 27.0161 54.9688 27.3853 55.0098 27.6841C55.0566 27.9771 55.1299 28.2114 55.2295 28.3872C55.3291 28.563 55.4609 28.689 55.625 28.7651C55.7949 28.8413 56 28.8794 56.2402 28.8794C56.5742 28.8794 56.8174 28.7856 56.9697 28.5981C57.1221 28.4106 57.1982 28.1938 57.1982 27.9478C57.1982 27.8188 57.1807 27.6958 57.1455 27.5786C57.1104 27.4614 57.0605 27.3442 56.9961 27.2271C56.9316 27.104 56.8525 26.981 56.7588 26.8579C56.665 26.7349 56.5596 26.6001 56.4424 26.4536L54.8164 24.5376C54.6055 24.2739 54.4004 24.0073 54.2012 23.7378C54.0078 23.4624 53.835 23.1812 53.6826 22.894C53.5361 22.6011 53.416 22.2964 53.3223 21.98C53.2344 21.6636 53.1904 21.3296 53.1904 20.978C53.1904 20.5093 53.2695 20.1021 53.4277 19.7563C53.5918 19.4106 53.8086 19.1235 54.0781 18.895C54.3535 18.6665 54.6699 18.4966 55.0273 18.3853C55.3848 18.2739 55.7627 18.2183 56.1611 18.2183C56.6006 18.2183 56.9961 18.271 57.3477 18.3765C57.6992 18.4819 58.001 18.6401 58.2529 18.8511C58.5049 19.062 58.6982 19.3257 58.833 19.6421C58.9678 19.9526 59.0352 20.3159 59.0352 20.7319C59.0352 21.0132 59.0088 21.2856 58.9561 21.5493C58.9092 21.813 58.8623 22.0386 58.8154 22.2261H57.2773C57.2715 21.8276 57.2539 21.479 57.2246 21.1802C57.1953 20.8813 57.1396 20.6353 57.0576 20.4419C56.9814 20.2427 56.873 20.0933 56.7324 19.9937C56.5977 19.894 56.4189 19.8442 56.1963 19.8442C56.0029 19.8442 55.8418 19.8765 55.7129 19.9409C55.584 19.9995 55.4785 20.0786 55.3965 20.1782C55.3203 20.2778 55.2646 20.3892 55.2295 20.5122C55.2002 20.6353 55.1855 20.7612 55.1855 20.8901C55.1855 21.1714 55.2529 21.4321 55.3877 21.6724C55.5225 21.9126 55.7012 22.1733 55.9238 22.4546L57.6992 24.5376C57.8281 24.6958 57.9775 24.8892 58.1475 25.1177C58.3174 25.3403 58.4785 25.5894 58.6309 25.8647C58.7832 26.1343 58.9121 26.4302 59.0176 26.7524C59.123 27.0747 59.1758 27.4116 59.1758 27.7632C59.1758 28.1909 59.1084 28.5806 58.9736 28.9321C58.8389 29.2778 58.6396 29.5737 58.376 29.8198C58.1123 30.0659 57.7871 30.2563 57.4004 30.3911C57.0195 30.5259 56.583 30.5933 56.0908 30.5933C55.6865 30.5933 55.3057 30.5493 54.9482 30.4614C54.5908 30.3677 54.2803 30.2183 54.0166 30.0132C53.7529 29.8022 53.5449 29.5269 53.3926 29.187C53.2402 28.8472 53.1641 28.4282 53.1641 27.9302ZM60.9336 18.3589H62.6562L62.8496 19.6509V19.6597C63.0254 19.3843 63.2129 19.1558 63.4121 18.9741C63.6113 18.7866 63.8164 18.6372 64.0273 18.5259C64.2441 18.4146 64.4639 18.3354 64.6865 18.2886C64.915 18.2417 65.1406 18.2183 65.3633 18.2183C65.8379 18.2183 66.2393 18.3325 66.5674 18.561C66.8955 18.7896 67.1445 19.1323 67.3145 19.5894C67.4902 19.3257 67.6748 19.106 67.8682 18.9302C68.0674 18.7544 68.2725 18.6138 68.4834 18.5083C68.6943 18.4028 68.9082 18.3296 69.125 18.2886C69.3418 18.2417 69.5615 18.2183 69.7842 18.2183C70.4873 18.2183 71.0293 18.4673 71.4102 18.9653C71.7969 19.4575 71.9902 20.1987 71.9902 21.189V30.4614H69.7666V21.2681C69.7666 21.0044 69.7461 20.7817 69.7051 20.6001C69.6641 20.4185 69.6025 20.272 69.5205 20.1606C69.4385 20.0493 69.333 19.9702 69.2041 19.9233C69.0752 19.8706 68.9199 19.8442 68.7383 19.8442C68.5332 19.8442 68.3281 19.9204 68.123 20.0728C67.918 20.2192 67.7305 20.4243 67.5605 20.688C67.5664 20.7407 67.5693 20.7935 67.5693 20.8462C67.5693 20.8989 67.5693 20.9517 67.5693 21.0044V30.4614H65.3457V21.2681C65.3457 21.0044 65.3252 20.7817 65.2842 20.6001C65.2432 20.4185 65.1816 20.272 65.0996 20.1606C65.0176 20.0493 64.9121 19.9702 64.7832 19.9233C64.6543 19.8706 64.499 19.8442 64.3174 19.8442C64.1182 19.8442 63.916 19.9175 63.7109 20.064C63.5059 20.2104 63.3213 20.4126 63.1572 20.6704V30.4614H60.9336V18.3589ZM77.2109 30.5933C76.6895 30.5933 76.2266 30.4966 75.8223 30.3032C75.4238 30.1099 75.0869 29.8081 74.8115 29.3979C74.5361 28.9878 74.3281 28.4634 74.1875 27.8247C74.0469 27.1802 73.9766 26.4067 73.9766 25.5044V23.2192C73.9766 22.4517 74.0322 21.7954 74.1436 21.2505C74.2607 20.6997 74.4102 20.2397 74.5918 19.8706C74.7793 19.4956 74.9932 19.1997 75.2334 18.9829C75.4795 18.7661 75.7314 18.6021 75.9893 18.4907C76.2471 18.3735 76.502 18.3003 76.7539 18.271C77.0117 18.2358 77.249 18.2183 77.4658 18.2183C77.8643 18.2183 78.248 18.2798 78.6172 18.4028C78.9863 18.52 79.3115 18.7251 79.5928 19.0181C79.874 19.3052 80.0967 19.6919 80.2607 20.1782C80.4307 20.6646 80.5156 21.271 80.5156 21.9976C80.5156 22.2437 80.5068 22.4927 80.4893 22.7446C80.4775 22.9966 80.46 23.2456 80.4365 23.4917C80.4131 23.7319 80.3809 23.9663 80.3398 24.1948C80.3047 24.4233 80.2666 24.6343 80.2256 24.8276H76.209V26.0581C76.209 26.5854 76.2295 27.0308 76.2705 27.394C76.3115 27.7515 76.3789 28.0415 76.4727 28.2642C76.5723 28.481 76.7041 28.6392 76.8682 28.7388C77.0381 28.8325 77.249 28.8794 77.501 28.8794C77.6357 28.8794 77.7676 28.853 77.8965 28.8003C78.0254 28.7417 78.1367 28.6479 78.2305 28.519C78.3301 28.3901 78.4092 28.2202 78.4678 28.0093C78.5264 27.7925 78.5557 27.5259 78.5557 27.2095V26.8315H80.4102V27.2974C80.4102 28.4458 80.1348 29.2837 79.584 29.811C79.0391 30.3325 78.248 30.5933 77.2109 30.5933ZM78.4414 23.3335C78.4473 23.269 78.4531 23.1841 78.459 23.0786C78.4648 22.9673 78.4678 22.853 78.4678 22.7358C78.4736 22.6187 78.4766 22.5044 78.4766 22.3931C78.4766 22.2759 78.4766 22.1763 78.4766 22.0942C78.4766 21.2974 78.3828 20.7231 78.1953 20.3716C78.0078 20.02 77.7295 19.8442 77.3604 19.8442C77.167 19.8442 76.9971 19.8911 76.8506 19.9849C76.7041 20.0728 76.584 20.2251 76.4902 20.4419C76.3965 20.6528 76.3262 20.9341 76.2793 21.2856C76.2324 21.6372 76.209 22.0737 76.209 22.5952V23.3335H78.4414ZM82.3965 18.3589H84.1104L84.3125 19.6509V19.6597C84.4883 19.3843 84.6758 19.1558 84.875 18.9741C85.0801 18.7866 85.291 18.6372 85.5078 18.5259C85.7246 18.4146 85.9443 18.3354 86.167 18.2886C86.3955 18.2417 86.6211 18.2183 86.8438 18.2183C87.5527 18.2183 88.0977 18.4673 88.4785 18.9653C88.8652 19.4575 89.0586 20.1987 89.0586 21.189V30.4614H86.835V21.2681C86.835 20.7349 86.7529 20.3657 86.5889 20.1606C86.4248 19.9497 86.1846 19.8442 85.8682 19.8442C85.6455 19.8442 85.4229 19.9175 85.2002 20.064C84.9834 20.2104 84.79 20.4126 84.6201 20.6704V30.4614H82.3965V18.3589ZM91.6162 19.9409H90.6758V18.3589H91.8096L92.2578 15.2212H93.8398V18.3589H95.7734V19.9409H93.8398V27.6401C93.8398 27.9038 93.8633 28.1177 93.9102 28.2817C93.9629 28.4399 94.0332 28.5659 94.1211 28.6597C94.209 28.7476 94.3115 28.8062 94.4287 28.8354C94.5459 28.8647 94.6689 28.8794 94.7979 28.8794C95.0146 28.8794 95.2051 28.853 95.3691 28.8003C95.5391 28.7476 95.7002 28.6743 95.8525 28.5806V29.811C95.7236 29.9692 95.583 30.0981 95.4307 30.1978C95.2842 30.2974 95.1318 30.3794 94.9736 30.4438C94.8154 30.5024 94.6543 30.5435 94.4902 30.5669C94.3262 30.5903 94.165 30.6021 94.0068 30.6021C93.6963 30.6021 93.3975 30.561 93.1104 30.479C92.8232 30.397 92.5684 30.2417 92.3457 30.0132C92.123 29.7788 91.9443 29.4565 91.8096 29.0464C91.6807 28.6362 91.6162 28.103 91.6162 27.4468V19.9409ZM102.682 17.2427H100.265V15.4497H107.366V17.2427H104.958V30.4614H102.682V17.2427ZM111.682 30.5933C111.16 30.5933 110.697 30.4966 110.293 30.3032C109.895 30.1099 109.558 29.8081 109.282 29.3979C109.007 28.9878 108.799 28.4634 108.658 27.8247C108.518 27.1802 108.447 26.4067 108.447 25.5044V23.2192C108.447 22.4517 108.503 21.7954 108.614 21.2505C108.731 20.6997 108.881 20.2397 109.062 19.8706C109.25 19.4956 109.464 19.1997 109.704 18.9829C109.95 18.7661 110.202 18.6021 110.46 18.4907C110.718 18.3735 110.973 18.3003 111.225 18.271C111.482 18.2358 111.72 18.2183 111.937 18.2183C112.335 18.2183 112.719 18.2798 113.088 18.4028C113.457 18.52 113.782 18.7251 114.063 19.0181C114.345 19.3052 114.567 19.6919 114.731 20.1782C114.901 20.6646 114.986 21.271 114.986 21.9976C114.986 22.2437 114.978 22.4927 114.96 22.7446C114.948 22.9966 114.931 23.2456 114.907 23.4917C114.884 23.7319 114.852 23.9663 114.811 24.1948C114.775 24.4233 114.737 24.6343 114.696 24.8276H110.68V26.0581C110.68 26.5854 110.7 27.0308 110.741 27.394C110.782 27.7515 110.85 28.0415 110.943 28.2642C111.043 28.481 111.175 28.6392 111.339 28.7388C111.509 28.8325 111.72 28.8794 111.972 28.8794C112.106 28.8794 112.238 28.853 112.367 28.8003C112.496 28.7417 112.607 28.6479 112.701 28.519C112.801 28.3901 112.88 28.2202 112.938 28.0093C112.997 27.7925 113.026 27.5259 113.026 27.2095V26.8315H114.881V27.2974C114.881 28.4458 114.605 29.2837 114.055 29.811C113.51 30.3325 112.719 30.5933 111.682 30.5933ZM112.912 23.3335C112.918 23.269 112.924 23.1841 112.93 23.0786C112.936 22.9673 112.938 22.853 112.938 22.7358C112.944 22.6187 112.947 22.5044 112.947 22.3931C112.947 22.2759 112.947 22.1763 112.947 22.0942C112.947 21.2974 112.854 20.7231 112.666 20.3716C112.479 20.02 112.2 19.8442 111.831 19.8442C111.638 19.8442 111.468 19.8911 111.321 19.9849C111.175 20.0728 111.055 20.2251 110.961 20.4419C110.867 20.6528 110.797 20.9341 110.75 21.2856C110.703 21.6372 110.68 22.0737 110.68 22.5952V23.3335H112.912ZM116.393 27.9302C116.393 27.6665 116.416 27.4116 116.463 27.1655C116.516 26.9194 116.565 26.7231 116.612 26.5767H118.177C118.177 27.0161 118.197 27.3853 118.238 27.6841C118.285 27.9771 118.358 28.2114 118.458 28.3872C118.558 28.563 118.689 28.689 118.854 28.7651C119.023 28.8413 119.229 28.8794 119.469 28.8794C119.803 28.8794 120.046 28.7856 120.198 28.5981C120.351 28.4106 120.427 28.1938 120.427 27.9478C120.427 27.8188 120.409 27.6958 120.374 27.5786C120.339 27.4614 120.289 27.3442 120.225 27.2271C120.16 27.104 120.081 26.981 119.987 26.8579C119.894 26.7349 119.788 26.6001 119.671 26.4536L118.045 24.5376C117.834 24.2739 117.629 24.0073 117.43 23.7378C117.236 23.4624 117.063 23.1812 116.911 22.894C116.765 22.6011 116.645 22.2964 116.551 21.98C116.463 21.6636 116.419 21.3296 116.419 20.978C116.419 20.5093 116.498 20.1021 116.656 19.7563C116.82 19.4106 117.037 19.1235 117.307 18.895C117.582 18.6665 117.898 18.4966 118.256 18.3853C118.613 18.2739 118.991 18.2183 119.39 18.2183C119.829 18.2183 120.225 18.271 120.576 18.3765C120.928 18.4819 121.229 18.6401 121.481 18.8511C121.733 19.062 121.927 19.3257 122.062 19.6421C122.196 19.9526 122.264 20.3159 122.264 20.7319C122.264 21.0132 122.237 21.2856 122.185 21.5493C122.138 21.813 122.091 22.0386 122.044 22.2261H120.506C120.5 21.8276 120.482 21.479 120.453 21.1802C120.424 20.8813 120.368 20.6353 120.286 20.4419C120.21 20.2427 120.102 20.0933 119.961 19.9937C119.826 19.894 119.647 19.8442 119.425 19.8442C119.231 19.8442 119.07 19.8765 118.941 19.9409C118.812 19.9995 118.707 20.0786 118.625 20.1782C118.549 20.2778 118.493 20.3892 118.458 20.5122C118.429 20.6353 118.414 20.7612 118.414 20.8901C118.414 21.1714 118.481 21.4321 118.616 21.6724C118.751 21.9126 118.93 22.1733 119.152 22.4546L120.928 24.5376C121.057 24.6958 121.206 24.8892 121.376 25.1177C121.546 25.3403 121.707 25.5894 121.859 25.8647C122.012 26.1343 122.141 26.4302 122.246 26.7524C122.352 27.0747 122.404 27.4116 122.404 27.7632C122.404 28.1909 122.337 28.5806 122.202 28.9321C122.067 29.2778 121.868 29.5737 121.604 29.8198C121.341 30.0659 121.016 30.2563 120.629 30.3911C120.248 30.5259 119.812 30.5933 119.319 30.5933C118.915 30.5933 118.534 30.5493 118.177 30.4614C117.819 30.3677 117.509 30.2183 117.245 30.0132C116.981 29.8022 116.773 29.5269 116.621 29.187C116.469 28.8472 116.393 28.4282 116.393 27.9302ZM124.417 19.9409H123.477V18.3589H124.61L125.059 15.2212H126.641V18.3589H128.574V19.9409H126.641V27.6401C126.641 27.9038 126.664 28.1177 126.711 28.2817C126.764 28.4399 126.834 28.5659 126.922 28.6597C127.01 28.7476 127.112 28.8062 127.229 28.8354C127.347 28.8647 127.47 28.8794 127.599 28.8794C127.815 28.8794 128.006 28.853 128.17 28.8003C128.34 28.7476 128.501 28.6743 128.653 28.5806V29.811C128.524 29.9692 128.384 30.0981 128.231 30.1978C128.085 30.2974 127.933 30.3794 127.774 30.4438C127.616 30.5024 127.455 30.5435 127.291 30.5669C127.127 30.5903 126.966 30.6021 126.808 30.6021C126.497 30.6021 126.198 30.561 125.911 30.479C125.624 30.397 125.369 30.2417 125.146 30.0132C124.924 29.7788 124.745 29.4565 124.61 29.0464C124.481 28.6362 124.417 28.103 124.417 27.4468V19.9409Z" fill="white"/>
<path d="M173.907 23.0587C173.891 22.687 173.726 22.2574 173.451 21.9865L164.484 13.1487C163.877 12.6422 162.712 12.4331 162.032 13.0188C161.363 13.5955 161.383 14.7141 162.05 15.2932L168.355 21.4991H141.681C140.753 21.4991 140 22.1974 140 23.0587C140 23.92 140.753 24.6183 141.681 24.6183H168.355L162.05 30.8243C161.476 31.3574 161.37 32.5153 162.032 33.0987C162.695 33.682 163.902 33.4957 164.484 32.9687L173.451 24.1309C173.758 23.8285 173.908 23.4736 173.907 23.0587Z" fill="white"/>
</svg>
