<svg width="238" height="165" viewBox="0 0 238 165" fill="none" xmlns="http://www.w3.org/2000/svg">
<circle cx="225.5" cy="62.5" r="3.5" fill="#9F2B00"/>
<circle cx="4.5" cy="81.5" r="4.5" fill="#EAA74B"/>
<circle cx="114.5" cy="67.5" r="4.5" fill="#EAA74B"/>
<circle cx="18.5" cy="46.5" r="3" stroke="#EAA74B"/>
<rect x="208" y="128" width="11" height="2" fill="#EAA74B"/>
<rect x="215" y="123" width="12" height="2" transform="rotate(90 215 123)" fill="#EAA74B"/>
<rect x="186" y="5" width="11" height="2" fill="#9F2B00"/>
<rect x="193" width="12" height="2" transform="rotate(90 193 0)" fill="#9F2B00"/>
<circle cx="233.5" cy="103.5" r="4.5" fill="#251F71"/>
<path d="M18 22.618L18.8716 25.3004L18.9838 25.6459H19.3471H22.1675L19.8857 27.3037L19.5918 27.5172L19.7041 27.8627L20.5757 30.5451L18.2939 28.8873L18 28.6738L17.7061 28.8873L15.4243 30.5451L16.2959 27.8627L16.4082 27.5172L16.1143 27.3037L13.8325 25.6459H16.6529H17.0162L17.1284 25.3004L18 22.618Z" stroke="#251F71"/>
<path d="M13 113.618L13.8716 116.3L13.9838 116.646H14.3471H17.1675L14.8857 118.304L14.5918 118.517L14.7041 118.863L15.5757 121.545L13.2939 119.887L13 119.674L12.7061 119.887L10.4243 121.545L11.2959 118.863L11.4082 118.517L11.1143 118.304L8.8325 116.646H11.6529H12.0162L12.1284 116.3L13 113.618Z" stroke="#9F2B00"/>
<path d="M170 146L171.347 150.146H175.706L172.18 152.708L173.527 156.854L170 154.292L166.473 156.854L167.82 152.708L164.294 150.146H168.653L170 146Z" fill="#C4C4C4"/>
<path d="M137.806 33.228H88.352C88.036 33.228 87.72 33.386 87.562 33.544C87.404 33.702 87.246 34.018 87.246 34.334V83.788C87.246 84.104 87.404 84.42 87.562 84.578C87.72 84.736 88.036 84.894 88.352 84.894H137.806C138.122 84.894 138.438 84.736 138.596 84.578C138.754 84.42 138.912 84.104 138.912 83.788V34.334C138.912 34.018 138.754 33.702 138.596 33.544C138.28 33.386 137.964 33.228 137.806 33.228ZM84.56 87.106H35.106C34.79 87.106 34.474 87.264 34.316 87.422C34.158 87.58 34 87.896 34 88.212V137.666C34 137.982 34.158 138.298 34.316 138.456C34.474 138.614 34.79 138.772 35.106 138.772H84.56C84.876 138.772 85.192 138.614 85.35 138.456C85.508 138.298 85.666 137.982 85.666 137.666V88.212C85.666 87.896 85.508 87.58 85.35 87.422C85.034 87.264 84.876 87.106 84.56 87.106ZM137.964 87.106H88.51C88.194 87.106 87.878 87.264 87.72 87.422C87.562 87.58 87.404 87.896 87.404 88.212V137.666C87.404 137.982 87.562 138.298 87.72 138.456C87.878 138.614 88.194 138.772 88.51 138.772H137.964C138.28 138.772 138.596 138.614 138.754 138.456C138.912 138.298 139.07 137.982 139.07 137.666V88.212C139.07 87.896 138.912 87.58 138.754 87.422C138.596 87.264 138.28 87.106 137.964 87.106ZM190.894 87.106H141.44C141.124 87.106 140.808 87.264 140.65 87.422C140.492 87.58 140.334 87.896 140.334 88.212V137.666C140.334 137.982 140.492 138.298 140.65 138.456C140.808 138.614 141.124 138.772 141.44 138.772H190.894C191.21 138.772 191.526 138.614 191.684 138.456C191.842 138.298 192 137.982 192 137.666V88.212C192 87.896 191.842 87.58 191.684 87.422C191.526 87.264 191.21 87.106 190.894 87.106Z" fill="#251F71"/>
<path d="M163.086 107.962L170.354 112.07C170.67 112.228 170.828 112.544 170.986 113.018V113.176C170.986 113.492 170.828 113.808 170.354 114.124L163.086 118.232C162.296 118.706 161.348 118.074 161.348 117.284V109.068C161.506 107.962 162.454 107.488 163.086 107.962ZM62.914 107.804L55.646 111.912C55.33 112.07 55.172 112.386 55.014 112.86V113.018C55.014 113.334 55.172 113.65 55.646 113.966L62.914 118.074C63.704 118.548 64.652 117.916 64.652 117.126V108.91C64.494 107.962 63.546 107.488 62.914 107.804ZM107.944 62.1422L112.052 54.8742C112.21 54.5582 112.526 54.4002 113 54.2422C113.316 54.2422 113.632 54.4002 113.948 54.8742L118.056 62.1422C118.53 62.9322 117.898 63.8802 117.108 63.8802H108.892C108.102 63.7222 107.47 62.7742 107.944 62.1422ZM118.214 109.858L114.106 117.126C113.948 117.442 113.632 117.6 113.158 117.758H113C112.684 117.758 112.368 117.6 112.052 117.126L107.944 109.858C107.786 109.068 108.26 108.12 109.05 108.12H117.266C118.214 108.12 118.688 109.068 118.214 109.858Z" fill="white"/>
</svg>
