<svg width="192" height="148" viewBox="0 0 192 148" fill="none" xmlns="http://www.w3.org/2000/svg">
<circle cx="188.5" cy="101.5" r="2.5" stroke="#9F2B00" stroke-width="2"/>
<circle cx="161.5" cy="58.5" r="3.5" fill="#9F2B00"/>
<circle cx="4.5" cy="71.5" r="4.5" fill="#EAA74B"/>
<circle cx="17.5" cy="116.5" r="3" stroke="#EAA74B"/>
<rect x="27" y="18" width="11" height="2" fill="#EAA74B"/>
<rect x="34" y="13" width="12" height="2" transform="rotate(90 34 13)" fill="#EAA74B"/>
<rect x="35" y="124" width="11" height="2" fill="#9F2B00"/>
<rect x="42" y="119" width="12" height="2" transform="rotate(90 42 119)" fill="#9F2B00"/>
<path d="M161 1.61803L161.872 4.30041L161.984 4.6459H162.347H165.167L162.886 6.3037L162.592 6.51722L162.704 6.86271L163.576 9.54508L161.294 7.88729L161 7.67376L160.706 7.88729L158.424 9.54508L159.296 6.86271L159.408 6.51722L159.114 6.3037L156.833 4.6459H159.653H160.016L160.128 4.30041L161 1.61803Z" stroke="#251F71"/>
<path d="M170 136L171.347 140.146H175.706L172.18 142.708L173.527 146.854L170 144.292L166.473 146.854L167.82 142.708L164.294 140.146H168.653L170 136Z" fill="#C4C4C4"/>
<rect x="49.149" y="21.6802" width="58.7225" height="67.84" fill="white"/>
<rect x="87.146" y="80.5601" width="17.2713" height="24.32" fill="white"/>
<path d="M102.981 31.0479H78.8445V36.3816H102.981V31.0479Z" fill="#9F2B00"/>
<path d="M102.981 49.7139H78.8445V55.0476H102.981V49.7139Z" fill="#9F2B00"/>
<path d="M102.981 68.3804H78.8445V73.7141H102.981V68.3804Z" fill="#9F2B00"/>
<path d="M62.751 41.7136C62.3494 41.7136 61.9375 41.624 61.5552 41.432L56.1911 38.7658C54.8665 38.1066 54.3284 36.5053 54.9914 35.1882C55.6569 33.871 57.2685 33.3398 58.5893 33.9952L61.9516 35.6669L68.6544 26.7811C69.5414 25.6022 71.2225 25.3654 72.4068 26.2486C73.5924 27.1306 73.8331 28.8022 72.9436 29.9798L64.8982 40.6461C64.3781 41.3386 63.5749 41.7136 62.751 41.7136Z" fill="#9F2B00"/>
<path d="M62.751 60.3798C62.3494 60.3798 61.9375 60.2889 61.5552 60.0982L56.1911 57.432C54.8665 56.7715 54.3284 55.1715 54.9914 53.8544C55.6569 52.5373 57.2685 52.0086 58.5893 52.6614L61.9516 54.3331L68.6544 45.4473C69.5414 44.2685 71.2225 44.0329 72.4068 44.9136C73.5924 45.7955 73.8331 47.4672 72.9436 48.6448L64.8982 59.311C64.3781 60.0061 63.5749 60.3798 62.751 60.3798Z" fill="#9F2B00"/>
<path d="M67.8872 72.3803L70.0137 70.2657C71.0616 69.2251 71.0616 67.5367 70.0137 66.4948C68.9659 65.4529 67.2693 65.4529 66.2214 66.4948L64.0949 68.6094L61.9683 66.4948C60.9205 65.4529 59.2239 65.4529 58.176 66.4948C57.1282 67.5367 57.1282 69.2238 58.176 70.2657L60.3026 72.3803L58.176 74.4948C57.1282 75.5367 57.1282 77.2238 58.176 78.2657C58.6999 78.7867 59.386 79.0465 60.0722 79.0465C60.7583 79.0465 61.4444 78.7867 61.9683 78.2657L64.0949 76.1511L66.2214 78.2657C66.7454 78.7867 67.4315 79.0465 68.1176 79.0465C68.8037 79.0465 69.4898 78.7867 70.0137 78.2657C71.0616 77.2251 71.0616 75.5367 70.0137 74.4948L67.8872 72.3803Z" fill="#9F2B00"/>
<path d="M149.827 82.2797C147.927 66.0561 134.021 53.4579 117.123 53.4579C115.395 53.4579 113.711 53.6301 112.054 53.8842V25.8643C112.054 21.7151 108.644 18.3389 104.451 18.3389H53.7678C49.576 18.3389 46.1652 21.7151 46.1652 25.8643V78.5423C46.1652 82.6915 49.576 86.0677 53.7678 86.0677H84.1784C84.1784 95.3089 88.0794 103.631 94.3148 109.565V138.746H134.862V127.458C142.834 127.458 149.359 121.387 150.003 113.661H150.067V106.136H155.136C156.535 106.136 157.67 105.011 157.67 103.627C157.671 103.062 149.827 82.2797 149.827 82.2797ZM106.986 78.5423C106.986 79.9269 105.847 81.0503 104.449 81.0503H101.917C100.517 81.0503 99.3837 82.1725 99.3837 83.5596C99.3837 88.0833 102.198 92.3686 105.011 95.5208C91.2202 93.0597 89.2922 83.5933 89.2119 83.149C89.0088 81.9377 87.9529 81.0515 86.7122 81.0515H53.7678C52.3689 81.0515 51.234 79.9281 51.234 78.5435V25.8643C51.234 24.4796 52.3689 23.3562 53.7678 23.3562H104.452C105.851 23.3562 106.986 24.4796 106.986 25.8643V78.5423ZM138.664 91.085C136.566 91.085 134.863 89.3993 134.863 87.3223C134.863 85.2441 136.566 83.5596 138.664 83.5596C140.764 83.5596 142.466 85.2441 142.466 87.3223C142.466 89.3993 140.763 91.085 138.664 91.085Z" fill="#251F71"/>
<path d="M29 51L30.3471 55.1459H34.7063L31.1796 57.7082L32.5267 61.8541L29 59.2918L25.4733 61.8541L26.8204 57.7082L23.2937 55.1459H27.6529L29 51Z" fill="#9F2B00"/>
</svg>
