<svg width="50" height="50" viewBox="0 0 50 50" fill="none" xmlns="http://www.w3.org/2000/svg">
<rect x="1" y="1" width="48" height="48" rx="4" fill="white" stroke="#155777" stroke-width="2"/>
<path d="M41.9322 34.8607C41.5399 34.7653 41.1948 34.6209 40.8979 34.4301C40.5045 34.1672 40.2015 33.8879 39.9891 33.595C39.7755 33.2994 39.6017 32.9751 39.4617 32.6127C38.6326 30.407 37.6297 27.6264 36.4506 24.2682C35.2703 20.9099 33.6399 16.3419 31.5581 10.5586H28.3708C26.873 14.6375 25.5045 18.365 24.2686 21.7478C23.0304 25.1292 21.7958 28.5065 20.5636 31.8757C20.3621 32.4506 20.1098 32.9506 19.8069 33.3688C19.504 33.7898 19.1347 34.1427 18.7002 34.4301C18.4444 34.6113 18.0968 34.7516 17.6563 34.8525C17.2158 34.9533 16.8199 35.0174 16.4688 35.0419V36.4437H25.7446V35.0419C24.5438 34.922 23.6845 34.7272 23.1704 34.4561C22.6539 34.1877 22.3968 33.8594 22.3968 33.4765C22.3968 33.3566 22.4149 33.1468 22.4535 32.8457C22.4885 32.5474 22.6092 32.061 22.812 31.3907C22.9713 30.8744 23.1596 30.2871 23.378 29.6264C23.5457 29.1209 23.6978 28.6768 23.8426 28.2695H31.9177L33.7111 33.1891C33.7847 33.3907 33.8306 33.5542 33.845 33.6727C33.8619 33.7926 33.8704 33.9015 33.8704 33.9969C33.8704 34.2735 33.483 34.5023 32.707 34.689C31.931 34.8756 31.5062 34.9928 30.9317 35.0405V36.4437H43.0002V35.0419C42.6816 35.0174 42.3244 34.9588 41.9322 34.8607ZM30.9245 25.5447H24.8129L27.847 16.8732L30.9245 25.5447Z" fill="#155777"/>
<path d="M26.7642 35.2772C26.4746 35.205 26.2199 35.1014 26.0003 34.9584C25.7106 34.7635 25.4874 34.5592 25.3305 34.3439C25.1748 34.126 25.0456 33.8862 24.9443 33.6205C24.3336 31.9952 23.5938 29.9462 22.7236 27.4708C21.8559 24.9967 20.6539 21.6303 19.12 17.3701H16.7726C15.6696 20.3742 14.6606 23.1234 13.7483 25.6165C12.8359 28.107 11.9259 30.5947 11.0183 33.0784C10.8699 33.5007 10.6841 33.8685 10.4608 34.1805C10.2375 34.4897 9.96597 34.75 9.64494 34.9598C9.45667 35.0933 9.20082 35.1968 8.87497 35.2731C8.54912 35.348 8.25706 35.393 8 35.412V36.4434H14.8332V35.4107C13.9498 35.3221 13.3162 35.1791 12.9372 34.9802C12.5595 34.7813 12.3676 34.5415 12.3676 34.2568C12.3676 34.1696 12.3821 34.0143 12.4099 33.7935C12.4352 33.5728 12.5233 33.2159 12.673 32.7214C12.79 32.3413 12.9288 31.9067 13.0905 31.4203C13.1316 31.2949 13.3765 30.5933 13.7133 29.6315H19.1188L20.7046 34.0456C20.7589 34.1941 20.7915 34.314 20.8035 34.4026C20.8156 34.4898 20.8229 34.5701 20.8229 34.6423C20.8229 34.8439 20.5356 35.0142 19.9648 35.1532C19.3915 35.2894 18.8955 35.3766 18.4731 35.412V36.4434H27.3109V35.4107C27.3109 35.4107 27.0539 35.3494 26.7642 35.2772ZM14.1912 28.2691C15.1506 25.5335 16.384 22.024 16.384 22.024L18.6288 28.2691H14.1912Z" fill="#155777"/>
</svg>
