<svg width="217" height="148" viewBox="0 0 217 148" fill="none" xmlns="http://www.w3.org/2000/svg">
<circle cx="213.5" cy="101.5" r="2.5" stroke="#9F2B00" stroke-width="2"/>
<circle cx="186.5" cy="58.5" r="3.5" fill="#9F2B00"/>
<circle cx="29.5" cy="71.5" r="4.5" fill="#EAA74B"/>
<circle cx="42.5" cy="116.5" r="3" stroke="#EAA74B"/>
<rect x="52" y="18" width="11" height="2" fill="#EAA74B"/>
<rect x="59" y="13" width="12" height="2" transform="rotate(90 59 13)" fill="#EAA74B"/>
<rect y="103" width="11" height="2" fill="#9F2B00"/>
<rect x="7" y="98" width="12" height="2" transform="rotate(90 7 98)" fill="#9F2B00"/>
<path d="M186 1.61803L186.872 4.30041L186.984 4.6459H187.347H190.167L187.886 6.3037L187.592 6.51722L187.704 6.86271L188.576 9.54508L186.294 7.88729L186 7.67376L185.706 7.88729L183.424 9.54508L184.296 6.86271L184.408 6.51722L184.114 6.3037L181.833 4.6459H184.653H185.016L185.128 4.30041L186 1.61803Z" stroke="#251F71"/>
<path d="M181.004 30C176.96 30 173.63 33.3305 173.63 37.3747V44.7495H188.379V37.3747C188.379 33.0926 185.049 30 181.004 30Z" fill="#251F71" fill-opacity="0.75"/>
<path d="M108.922 30C104.878 30 101.547 33.3305 101.547 37.6126V58.5474C117.486 59.2611 130.095 72.3453 130.095 88.2842C130.095 101.606 121.055 113.025 108.922 116.832V118.735H163.876C167.92 118.735 171.488 115.404 171.488 111.122V45.9389V37.3747C171.488 34.52 172.916 31.6653 174.819 30H108.922ZM137.469 40.7053C137.469 39.2779 138.659 38.3263 139.848 38.3263H158.404C159.832 38.3263 160.783 39.2779 160.783 40.7053V59.2611C160.783 60.6884 159.832 61.64 158.404 61.64H139.848C138.659 61.64 137.469 60.6884 137.469 59.2611V40.7053ZM132.474 70.4421H139.848C140.8 70.4421 141.752 71.1558 141.752 72.3453C141.752 73.2968 141.038 74.2484 139.848 74.2484H132.474C131.522 74.2484 130.571 73.5347 130.571 72.3453C130.808 71.1558 131.522 70.4421 132.474 70.4421ZM146.985 82.3368C147.937 82.3368 148.888 83.0505 148.888 84.24C148.888 85.1916 148.175 86.1432 146.985 86.1432H137.232C136.28 86.1432 135.328 85.4295 135.328 84.24C135.328 83.2884 136.042 82.3368 137.232 82.3368H146.985ZM122.006 41.4189H128.192C129.143 41.4189 130.095 42.1326 130.095 43.3221C130.095 44.2737 129.381 45.2253 128.192 45.2253H122.006C121.055 45.2253 120.103 44.5116 120.103 43.3221C120.103 42.3705 120.817 41.4189 122.006 41.4189ZM111.777 41.4189H116.297C117.248 41.4189 118.2 42.1326 118.2 43.3221C118.2 44.2737 117.486 45.2253 116.297 45.2253H111.777C110.825 45.2253 109.874 44.5116 109.874 43.3221C110.112 42.3705 110.825 41.4189 111.777 41.4189ZM120.579 54.5032H111.777C110.825 54.5032 109.874 53.7895 109.874 52.6C109.874 51.6484 110.587 50.6968 111.777 50.6968H120.579C121.531 50.6968 122.482 51.4105 122.482 52.6C122.482 53.7895 121.531 54.5032 120.579 54.5032ZM128.192 54.5032H126.051C125.099 54.5032 124.147 53.7895 124.147 52.6C124.147 51.6484 124.861 50.6968 126.051 50.6968H128.192C129.143 50.6968 130.095 51.4105 130.095 52.6C130.095 53.7895 129.143 54.5032 128.192 54.5032ZM135.804 109.695H125.337C124.385 109.695 123.434 108.981 123.434 107.792C123.434 106.84 124.147 105.888 125.337 105.888H135.804C136.756 105.888 137.707 106.602 137.707 107.792C137.469 108.981 136.756 109.695 135.804 109.695ZM132.474 97.8C131.522 97.8 130.571 97.0863 130.571 95.8968C130.571 94.9453 131.284 93.9937 132.474 93.9937H140.086C141.038 93.9937 141.989 94.7074 141.989 95.8968C141.989 96.8484 141.276 97.8 140.086 97.8H132.474ZM160.783 109.695H142.941C141.989 109.695 141.038 108.981 141.038 107.792C141.038 106.84 141.752 105.888 142.941 105.888H160.783C161.735 105.888 162.686 106.602 162.686 107.792C162.448 108.981 161.735 109.695 160.783 109.695ZM160.783 97.8H146.272C145.32 97.8 144.368 97.0863 144.368 95.8968C144.368 94.9453 145.082 93.9937 146.272 93.9937H160.783C161.735 93.9937 162.686 94.7074 162.686 95.8968C162.448 97.0863 161.735 97.8 160.783 97.8ZM160.783 85.9053H152.695C151.743 85.9053 150.792 85.1916 150.792 84.0021C150.792 83.0505 151.505 82.0989 152.695 82.0989H160.783C161.735 82.0989 162.686 82.8126 162.686 84.0021C162.448 85.1916 161.735 85.9053 160.783 85.9053ZM160.783 74.0105H146.272C145.32 74.0105 144.368 73.2968 144.368 72.1074C144.368 71.1558 145.082 70.2042 146.272 70.2042H160.783C161.735 70.2042 162.686 70.9179 162.686 72.1074C162.448 73.2968 161.735 74.0105 160.783 74.0105Z" fill="#251F71"/>
<rect x="137" y="38" width="24" height="24" rx="2" fill="white"/>
<path d="M94.8 61C78.1 61 64.5 72.9 64.5 87.6C64.5 102.3 78.1 114.2 94.8 114.2C100.9 114.2 106.5 112.6 111.3 109.9C115.6 112.5 116.3 110.4 119 110C119.8 109.9 119.7 109.9 119 109.5C116.4 107.8 119.2 106.4 118.4 104.3C122.6 99.7 125.1 93.9 125.1 87.6C125.2 72.9 111.6 61 94.8 61ZM83.8 99.5H78.6V75.7H83.8V99.5ZM92.9 99.5H87.7V87.6H92.9V99.5ZM102 99.5H96.8V82.2H102V99.5ZM111 99.5H105.8V94H111V99.5ZM54.6 127.4C51.1 123.6 49 118.8 49 113.5C49 105.8 53.5 99.1 60.2 95.1C64 109.1 78 119.5 94.8 119.5C96.1 119.5 97.3 119.4 98.6 119.3C95.7 128.7 85.9 135.6 74.3 135.6C69.2 135.6 64.5 134.3 60.6 132C57 134.1 53.2 134.1 51 133.7C50.4 133.6 50.2 132.8 50.7 132.4C52.8 131.1 54 129.1 54.6 127.4Z" fill="#EAA74B"/>
<path d="M95.3 61C78.6 61 65 72.9 65 87.6C65 102.3 78.6 114.2 95.3 114.2C101.4 114.2 107 112.6 111.8 109.9C116.1 112.5 116.8 110.4 119.5 110C120.3 109.9 120.2 109.9 119.5 109.5C116.9 107.8 119.7 106.4 118.9 104.3C123.1 99.7 125.6 93.9 125.6 87.6C125.7 72.9 112.1 61 95.3 61ZM84.3 99.5H79.1V75.7H84.3V99.5ZM93.4 99.5H88.2V87.6H93.4V99.5ZM102.5 99.5H97.3V82.2H102.5V99.5ZM111.5 99.5H106.3V94H111.5V99.5Z" fill="#9F2B00"/>
<path d="M195 136L196.347 140.146H200.706L197.18 142.708L198.527 146.854L195 144.292L191.473 146.854L192.82 142.708L189.294 140.146H193.653L195 136Z" fill="#C4C4C4"/>
<path d="M54 51L55.3471 55.1459H59.7063L56.1796 57.7082L57.5267 61.8541L54 59.2918L50.4733 61.8541L51.8204 57.7082L48.2937 55.1459H52.6529L54 51Z" fill="#9F2B00"/>
</svg>
