<?xml version="1.0" standalone="no"?><!DOCTYPE svg PUBLIC "-//W3C//DTD SVG 1.1//EN" "http://www.w3.org/Graphics/SVG/1.1/DTD/svg11.dtd"><svg t="1557699539745" class="icon" style="" viewBox="0 0 1024 1024" version="1.1" xmlns="http://www.w3.org/2000/svg" p-id="1703" xmlns:xlink="http://www.w3.org/1999/xlink" width="200" height="200"><defs><style type="text/css"></style></defs><path d="M822.96608 443.2c-4.8-14.4-19.2-24-35.2-24-14.4 0-30.4 9.6-35.2 24L554.16608 884.8c-9.6 19.2 0 44.8 19.2 54.4 19.2 9.6 44.8 0 54.4-19.2l49.6-104h228.8l49.6 108.8c4.8 14.4 19.2 24 35.2 24 4.8 0 9.6 0 14.4-4.8 14.4-19.2 24-40 14.4-59.2L822.96608 443.2z m-35.2 110.4l80 172.8h-153.6l73.6-172.8zM421.36608 91.2c-4.8-14.4-20.8-24-40-24-14.4 0-30.4 9.6-40 24L3.76608 880c-9.6 19.2 0 44.8 19.2 54.4 19.2 9.6 44.8 0 54.4-19.2l104-238.4h401.6l4.8-9.6 40-84.8v-9.6L421.36608 91.2z m-35.2 120l163.2 387.2H222.96608l163.2-387.2z" p-id="1704"></path></svg>