<svg width="279" height="244" viewBox="0 0 279 244" fill="none" xmlns="http://www.w3.org/2000/svg">
<path d="M91.5959 118.052C91.8919 119.236 89.0799 122.788 88.3399 124.564C87.5999 126.488 87.4519 130.336 85.5279 132.26C84.4919 133.444 81.3839 135.072 81.2359 136.256C80.1999 154.164 81.3839 198.86 81.3839 198.86H65.6959C65.6959 198.86 68.9519 152.684 69.3959 135.072C69.3959 133.444 67.1759 133.592 65.9919 128.412C65.5479 126.932 65.9919 123.528 65.6959 121.9C65.2519 119.976 63.4759 116.572 62.8839 114.648C62.5879 113.612 61.6999 110.8 62.5879 110.208C63.3279 109.764 64.0679 110.06 64.5119 110.8C65.2519 111.836 66.4359 114.796 67.0279 116.572C67.3239 117.312 69.2479 119.68 69.2479 118.94C69.5439 115.24 67.7679 109.172 67.6199 105.768C67.6199 105.028 67.6199 103.696 68.8039 103.252C69.5439 102.956 70.4319 103.4 70.5799 104.14C71.3199 107.248 72.2079 113.168 72.9479 117.016C72.9479 117.164 73.6879 117.164 73.6879 116.868C74.1319 114.352 73.3919 105.472 73.6879 102.66C73.6879 102.068 74.2799 101.032 75.6119 101.032C76.3519 101.032 77.0919 101.92 77.3879 103.4C77.8319 106.656 77.6839 113.168 77.8319 116.572C77.8319 116.72 78.4239 116.868 78.5719 116.72C79.4599 113.76 79.7559 108.136 80.0519 105.176C80.1999 104.288 81.0879 103.548 81.6799 103.696C82.2719 103.696 83.4559 103.992 83.6039 105.472C84.1959 109.764 82.5679 117.756 82.5679 121.752C82.5679 122.492 82.8639 124.268 83.6039 124.268C84.3439 124.268 85.2319 120.568 86.1199 119.088C86.7119 118.052 88.3399 117.016 89.6719 117.016C90.2639 116.72 91.2999 116.868 91.5959 118.052Z" fill="#EDBF9D"/>
<path d="M33.58 142.176C33.136 143.212 35.06 146.764 35.504 148.392C35.948 150.168 35.504 153.572 36.836 155.496C37.576 156.68 40.092 158.604 39.944 159.64C38.464 175.624 32.988 198.86 32.988 198.86H46.456C46.456 198.86 48.38 175.772 50.452 160.232C50.6 158.752 52.524 159.196 54.3 154.904C54.892 153.572 54.892 150.464 55.484 149.28C56.076 147.652 58.148 144.84 58.888 143.212C59.332 142.324 60.368 139.956 59.776 139.364C59.184 138.92 58.444 139.068 58 139.512C57.26 140.252 55.928 142.768 55.04 144.248C54.744 144.84 52.82 146.616 52.82 146.024C53.116 142.768 55.484 137.588 56.076 134.628C56.224 134.036 56.372 132.704 55.336 132.26C54.744 131.964 53.856 132.26 53.56 132.852C52.524 135.516 50.896 140.696 49.86 143.952C49.86 144.1 49.268 143.952 49.268 143.804C49.268 141.436 51.192 133.74 51.192 131.224C51.192 130.632 50.896 129.596 49.86 129.448C49.268 129.3 48.38 130.04 48.084 131.372C47.196 134.184 46.456 139.956 45.864 142.916C45.864 143.064 45.272 143.064 45.272 142.916C44.976 140.104 45.42 135.072 45.568 132.408C45.568 131.52 44.828 130.928 44.384 130.78C43.792 130.78 42.756 130.928 42.46 132.112C41.424 135.812 41.72 143.064 40.98 146.616C40.832 147.208 40.388 148.836 39.796 148.688C39.056 148.54 38.908 145.136 38.316 143.804C38.02 142.916 36.688 141.732 35.652 141.436C35.06 141.14 34.024 141.14 33.58 142.176Z" fill="#A15C42"/>
<path d="M129.04 104.732C129.484 106.064 125.932 110.8 125.044 112.724C124.156 114.944 123.268 119.828 121.196 122.344C119.42 124.416 117.052 124.86 116.904 126.044C115.72 146.764 117.2 198.86 117.2 198.86H98.404C98.404 198.86 102.4 145.136 102.844 124.712C102.844 122.788 100.18 122.936 98.7 117.016C98.256 115.24 98.7 111.244 98.404 109.468C97.96 107.1 96.184 103.252 95.444 101.032C95 99.9959 93.52 97.1839 94.704 95.9999C95.296 95.2599 96.48 95.7039 97.072 96.4439C97.96 97.6279 99.144 101.032 100.18 102.956C100.476 103.4 101.216 104.88 101.956 105.62C102.548 106.212 102.992 106.212 103.14 105.768C103.436 101.476 101.216 94.3719 101.068 90.3759C101.068 89.4879 100.772 88.1559 102.4 87.7119C103.288 87.4159 104.324 87.7119 104.62 88.7479C105.508 92.4479 106.544 99.2559 107.432 103.696C107.432 103.844 108.32 103.844 108.32 103.548C108.912 100.588 108.172 90.2279 108.616 87.1199C108.764 86.3799 109.06 85.0479 110.54 85.0479C111.724 85.0479 112.464 86.0839 112.612 87.8599C113.056 91.7079 113.056 99.2559 113.204 103.252C113.204 103.4 113.944 103.548 114.092 103.4C115.128 99.9959 115.572 93.3359 115.868 89.9319C116.016 88.8959 117.2 88.1559 117.792 88.1559C118.532 88.1559 119.864 88.5999 120.16 90.2279C120.752 95.2599 118.828 104.436 118.976 109.172C118.976 109.912 119.42 112.28 120.16 112.132C120.752 111.984 121.936 107.84 123.12 106.064C123.86 105.028 125.34 103.548 126.82 103.4C127.264 103.252 128.744 103.252 129.04 104.732Z" fill="#E1BB9F"/>
<path d="M122.972 131.668C122.824 132.704 125.784 135.96 126.672 137.292C127.56 138.92 128.744 142.472 130.372 144.248C131.852 145.58 133.628 145.728 133.776 146.616C136.884 162.304 142.804 198.86 142.804 198.86H157.012C157.012 198.86 146.356 159.64 143.84 144.248C143.544 142.768 145.468 142.62 145.912 138.032C146.06 136.7 145.172 133.74 145.32 132.26C145.468 130.484 146.208 127.376 146.504 125.6C146.652 124.712 147.392 122.492 146.504 121.604C145.912 121.16 145.172 121.456 144.876 122.196C144.284 123.084 143.988 125.896 143.396 127.376C143.248 127.82 142.952 129.004 142.508 129.596C142.212 130.04 141.768 130.188 141.768 129.892C141.028 126.784 141.916 121.012 141.62 118.052C141.62 117.46 141.62 116.424 140.436 116.128C139.844 115.98 139.104 116.276 138.956 117.164C138.66 119.976 138.808 125.304 138.66 128.708C138.66 128.856 138.068 128.856 138.068 128.708C137.328 126.488 136.736 118.644 135.996 116.276C135.848 115.832 135.552 114.796 134.368 114.944C133.628 115.092 133.184 115.98 133.184 117.312C133.184 120.272 134.22 125.896 134.516 129.004C134.516 129.152 134.072 129.3 133.924 129.152C132.888 126.636 131.852 121.604 131.112 119.088C130.964 118.348 130.076 117.904 129.484 117.904C129.04 118.052 128.004 118.496 128.004 119.68C128.152 123.528 130.52 130.336 130.964 133.888C130.964 134.48 130.964 136.256 130.52 136.256C130.076 136.108 128.744 133.148 127.708 131.964C127.116 131.224 125.932 130.336 124.748 130.336C124.156 130.484 123.12 130.632 122.972 131.668Z" fill="#604940"/>
<path d="M52.9681 94.076C51.6361 91.856 48.9721 90.968 46.6041 92.004C44.6801 92.892 43.6441 94.816 43.6441 96.74C42.1641 95.408 40.0921 94.964 38.1681 95.852C35.8001 96.888 34.6161 99.552 35.5041 102.068C35.5041 102.216 35.6521 102.364 35.6521 102.512C38.1681 108.136 46.1601 107.544 49.8601 110.356C50.1561 105.768 55.7801 99.996 53.2641 94.52C53.1161 94.372 53.1161 94.224 52.9681 94.076Z" fill="#9F2B00"/>
<path d="M86.564 71.58C85.676 69.064 83.16 67.584 80.496 68.176C78.424 68.62 76.796 70.396 76.5 72.32C75.316 70.692 73.244 69.804 71.024 70.248C68.36 70.84 66.584 73.356 67.028 76.02C67.028 76.168 67.028 76.316 67.176 76.6119C68.508 82.828 76.796 84.0119 79.904 87.712C81.236 83.124 88.192 78.3879 86.712 72.172C86.712 72.024 86.712 71.728 86.564 71.58Z" fill="#9F2B00"/>
<path d="M157.16 104.732C157.604 103.696 157.308 102.66 156.272 102.068C155.532 101.624 154.644 101.772 153.904 102.216C154.052 101.476 153.608 100.588 152.868 100.144C151.98 99.5519 150.796 99.8479 150.056 100.736L149.908 100.884C148.576 103.104 150.796 105.768 150.648 107.692C152.276 106.656 155.532 107.248 156.864 105.028C157.16 104.88 157.16 104.88 157.16 104.732Z" fill="#9F2B00"/>
<path d="M144.284 79.5722C145.32 76.6122 144.136 73.3562 141.176 71.8762C138.956 70.6922 136.292 71.1362 134.368 72.7642C134.516 70.3962 133.184 68.0282 130.964 66.8442C128.152 65.5122 124.748 66.5482 123.12 69.0642C122.972 69.2122 122.972 69.3602 122.824 69.6562C119.568 76.3162 126.228 83.5682 126.524 89.1922C131.112 85.9362 140.88 86.6762 144.136 80.0162C144.136 79.8682 144.284 79.7202 144.284 79.5722Z" fill="#9F2B00"/>
<path d="M243 27H175C168.9 27 164 31.6 164 37.3V89C164 94.7 168.9 99.3 175 99.3H182.2V114.6C182.2 115.5 182.8 116.4 183.7 116.8C184.1 117 184.4 117 184.8 117C185.4 117 186 116.8 186.5 116.5L209.2 99.3H243C249.1 99.3 254 94.7 254 89V37.3C254 31.6 249.1 27 243 27ZM215.2 77.5H209.1V64.5H197.8V77.5H191.7V48.3H197.8V59.4H209.1V48.3H215.2V77.5ZM226.6 77.5H220.5V48.3H226.6V77.5Z" fill="#251F71"/>
<circle cx="222.5" cy="123.5" r="2.5" stroke="#9F2B00" stroke-width="2"/>
<circle cx="275.5" cy="62.5" r="3.5" fill="#9F2B00"/>
<circle cx="4.5" cy="118.5" r="4.5" fill="#EAA74B"/>
<circle cx="17.5" cy="163.5" r="3" stroke="#EAA74B"/>
<rect x="208" y="165" width="11" height="2" fill="#EAA74B"/>
<rect x="215" y="160" width="12" height="2" transform="rotate(90 215 160)" fill="#EAA74B"/>
<rect x="236" y="5" width="11" height="2" fill="#9F2B00"/>
<rect x="243" width="12" height="2" transform="rotate(90 243 0)" fill="#9F2B00"/>
</svg>
